<svg width="181" height="180" viewBox="0 0 181 180" fill="none" xmlns="http://www.w3.org/2000/svg">
<path d="M160.812 157.5C160.067 157.499 159.352 157.202 158.825 156.675C158.297 156.148 158.001 155.433 158 154.687C157.997 152.45 157.108 150.306 155.526 148.724C153.944 147.142 151.799 146.252 149.562 146.25C148.817 146.249 148.102 145.952 147.575 145.425C147.047 144.898 146.751 144.183 146.75 143.437C146.747 141.2 145.858 139.056 144.276 137.474C142.694 135.892 140.549 135.002 138.312 135H136.842C136.24 135.002 135.653 134.81 135.169 134.453C134.685 134.095 134.329 133.591 134.154 133.015L126.729 108.885C125.15 103.908 122.615 99.2866 119.267 95.2797C118.456 94.3118 116.841 93.2054 116.587 91.9468C116.526 91.4769 116.565 90.9996 116.7 90.5455C117.197 88.3243 117.382 86.0371 118.027 83.8483C118.174 83.3494 119.837 78.8828 120.277 78.9218C122.703 79.1366 127.062 79.453 131.633 79.453C142.074 79.453 147.512 77.8893 149.265 74.3828C156.11 60.6933 159.197 51.592 160.586 46.2384L167.661 36.8085C168.25 36.0217 168.64 35.1039 168.797 34.1336C168.955 33.1633 168.875 32.1693 168.564 31.2366C167.328 27.5149 166.276 22.4999 161.27 22.4999C159.657 22.5018 158.111 23.1431 156.971 24.2833C155.831 25.4235 155.189 26.9694 155.188 28.5819V29.5311L148.437 34.5936C147.209 35.5178 146.182 36.6835 145.421 38.0193C145.192 38.1789 144.962 38.3377 144.733 38.4956L135.573 11.0147C143.848 10.777 152.897 12.5373 156.405 13.3048L157.957 18.1426L163.313 16.4238L161.272 10.0634C161.126 9.60847 160.866 9.19827 160.518 8.87147C160.169 8.54467 159.743 8.31204 159.28 8.19552C158.65 8.03661 137.258 -0.527453 102.648 10.1625C85.3633 15.5013 73.0214 23.8822 68.5625 27.1915C65.1385 25.6971 61.3962 25.0789 57.6735 25.3925C53.9508 25.7062 50.3648 26.9418 47.239 28.988C44.1133 31.0342 41.5463 33.8265 39.7696 37.113C37.993 40.3994 37.0626 44.0765 37.0625 47.8124C37.0581 50.6081 37.5789 53.3797 38.5978 55.9831C35.4931 60.6177 33.2189 64.378 33.1707 64.462L38.0328 67.2907C40.9747 62.2338 50.7291 47.4475 55.2632 44.1118C56.878 42.9236 58.1605 42.1874 59.5625 42.1874C61.0538 42.1892 62.4835 42.7824 63.538 43.8369C64.5925 44.8914 65.1857 46.3211 65.1875 47.8124C65.1875 50.723 63.3436 54.4386 60.793 59.581C59.8054 61.5715 58.6857 63.8271 57.54 66.3169C56.6547 68.2399 55.8458 70.1053 55.0667 72.0213C48.6289 87.8765 45.5 105.717 45.5 126.562V146.25C45.5 149.9 39.875 149.876 39.875 146.25V143.437H34.25V146.25C34.25 148.692 31.1682 149.957 29.4501 148.244C29.1878 147.983 28.9798 147.672 28.8382 147.329C28.6965 146.987 28.6241 146.62 28.625 146.25C28.625 145.504 28.3287 144.789 27.8012 144.261C27.2738 143.734 26.5584 143.437 25.8125 143.437C25.0666 143.437 24.3512 143.734 23.8238 144.261C23.2963 144.789 23 145.504 23 146.25C23 149.888 17.375 149.889 17.375 146.25V132.187C17.375 115.845 22.9768 99.0351 28.0491 87.1656C28.2397 87.1786 28.4313 87.1874 28.625 87.1874C30.5941 87.1904 32.5024 86.5058 34.0204 85.2517C35.5384 83.9975 36.5708 82.2527 36.9393 80.3184C37.3078 78.3841 36.9893 76.3819 36.0387 74.6575C35.0882 72.933 33.5653 71.5947 31.733 70.8735C29.9008 70.1524 27.8742 70.0937 26.0033 70.7076C24.1324 71.3216 22.5346 72.5696 21.4859 74.2361C20.4372 75.9026 20.0033 77.8831 20.2593 79.8354C20.5152 81.7878 21.445 83.5894 22.8879 84.9293C17.5993 97.3022 11.75 114.896 11.75 132.187V146.25C11.7525 148.487 12.6423 150.632 14.2241 152.213C15.8059 153.795 17.9505 154.685 20.1875 154.687C22.2583 154.669 24.2534 153.906 25.8093 152.54C27.3578 153.923 29.3617 154.688 31.4384 154.688C33.515 154.688 35.5189 153.923 37.0674 152.54C38.2809 153.626 39.7832 154.338 41.3925 154.589C43.0019 154.84 44.6496 154.62 46.1364 153.955C47.6232 153.289 48.8855 152.208 49.7708 150.84C50.6561 149.473 51.1264 147.879 51.125 146.25V126.562C51.125 109.693 53.2414 94.9123 57.5565 81.6292L59.912 88.6931C60.8585 91.5302 62.6733 93.9978 65.0996 95.7466C67.5259 97.4953 70.4408 98.4367 73.4316 98.4374C76.5264 98.4279 79.5346 97.4155 82.0054 95.552C84.4763 93.6885 86.2765 91.0744 87.1363 88.1015L87.671 86.2308C88.4855 87.218 89.4384 88.0824 90.5 88.7972V120.937H73.625C72.8791 120.937 72.1637 121.234 71.6363 121.761C71.1088 122.289 70.8125 123.004 70.8125 123.75V168.75H54.6016C54.4544 168.746 54.3128 168.693 54.1987 168.6C54.0846 168.507 54.0045 168.378 53.9708 168.235C53.9371 168.092 53.9518 167.941 54.0124 167.807C54.0731 167.673 54.1764 167.562 54.3063 167.493L63.6332 162.828C64.1336 162.578 64.548 162.184 64.8236 161.697C65.0991 161.211 65.2232 160.653 65.1801 160.095C64.4285 150.394 62.4857 125.274 62.3761 123.665V118.491C62.3787 116.157 63.3068 113.919 64.9569 112.269C66.6071 110.619 68.8444 109.69 71.1781 109.687H84.875V104.062H71.1781C67.3529 104.067 63.6856 105.588 60.9807 108.293C58.2759 110.998 56.7544 114.665 56.75 118.491V123.75C56.75 123.894 56.75 124.112 59.4247 158.643L51.793 162.46C50.5256 163.094 49.5092 164.136 48.9084 165.419C48.3076 166.702 48.1576 168.15 48.4827 169.529C48.8078 170.908 49.5889 172.137 50.6996 173.016C51.8102 173.896 53.1853 174.375 54.602 174.375H73.625C74.3709 174.375 75.0863 174.079 75.6137 173.551C76.1412 173.024 76.4375 172.308 76.4375 171.562V170.061C79.5295 172.849 83.5485 174.387 87.7121 174.375H160.812C163.05 174.375 165.196 173.486 166.779 171.904C168.361 170.321 169.25 168.175 169.25 165.937C169.25 163.7 168.361 161.554 166.779 159.971C165.196 158.389 163.05 157.5 160.812 157.5ZM28.625 75.9374C29.1813 75.9374 29.725 76.1023 30.1875 76.4114C30.6501 76.7204 31.0105 77.1597 31.2234 77.6736C31.4363 78.1875 31.492 78.753 31.3835 79.2986C31.2749 79.8442 31.0071 80.3453 30.6137 80.7386C30.2204 81.132 29.7193 81.3998 29.1737 81.5084C28.6281 81.6169 28.0626 81.5612 27.5487 81.3483C27.0348 81.1354 26.5955 80.7749 26.2865 80.3124C25.9775 79.8499 25.8125 79.3062 25.8125 78.7499C25.8133 78.0042 26.1099 77.2893 26.6372 76.7621C27.1645 76.2348 27.8793 75.9382 28.625 75.9374ZM161.571 28.3488C161.656 28.4065 161.72 28.4907 161.753 28.5883L163.227 33.0116C163.251 33.082 163.257 33.1572 163.246 33.2306C163.235 33.3041 163.205 33.3737 163.161 33.4335L155.75 43.3124C155.525 43.6109 155.363 43.9513 155.272 44.3136C154.024 49.3086 151.096 58.1441 144.248 71.8427C143.941 72.4576 142.493 72.7255 141.946 72.883C134.834 74.9281 126.205 73.95 118.935 73.1425C118.363 73.0791 117.786 73.1925 117.28 73.4674C116.775 73.7422 116.366 74.1654 116.109 74.6799L114.606 77.6861C110.343 75.0896 106.68 71.6176 103.859 67.4999H135.5C135.963 67.4999 136.419 67.3856 136.827 67.1671C137.235 66.9487 137.583 66.6328 137.84 66.2476L149.09 49.3726C149.398 48.9107 149.563 48.3677 149.562 47.8124C149.563 44.81 148.995 41.2076 151.812 39.0936L159.687 33.1874C160.037 32.9254 160.32 32.5857 160.516 32.1952C160.711 31.8046 160.812 31.374 160.812 30.9374V28.7169C160.813 28.6321 160.836 28.5489 160.88 28.4762C160.924 28.4036 160.986 28.3442 161.061 28.3045C161.136 28.2648 161.221 28.2462 161.305 28.2507C161.39 28.2552 161.472 28.2827 161.542 28.3302L161.571 28.3488ZM77.4655 61.4411C79.5506 61.6344 81.6635 61.7687 83.7936 61.8295L83.6751 62.3896C81.4474 63.0173 79.4174 64.2049 77.7787 65.8394C76.1399 67.4738 74.9469 69.5006 74.3134 71.7267L73.4183 74.8602L70.8828 67.2587C73.4388 65.772 75.6759 63.7949 77.4655 61.4411ZM113.222 32.517C113.405 32.6665 113.581 32.8255 113.75 32.994C115.344 34.582 115.542 36.6942 115.911 38.7924C116.281 40.9038 117.065 42.547 118.013 44.443C118.003 44.4244 116.174 46.5953 116.026 46.9911C115.602 48.1348 115.812 49.4264 115.812 50.6249H110.188C109.442 50.6249 108.726 50.9212 108.199 51.4487C107.671 51.9761 107.375 52.6915 107.375 53.4374V61.8749H103.648C105.362 61.8696 106.16 52.8749 106.302 51.309C106.513 48.9754 106.725 46.6418 106.938 44.3084C107.011 43.4998 106.788 41.0944 107.29 40.424L113.222 32.517ZM130.765 14.3813L123.793 12.2406L123.632 11.7561C125.671 11.5522 127.716 11.4099 129.749 11.3293L130.765 14.3813ZM135.617 28.9338L131.281 27.4766L134.036 24.1934L135.617 28.9338ZM139.147 39.5282L139.845 41.6207C138.631 42.3474 137.397 43.0501 136.154 43.7209L139.147 39.5282ZM130.147 20.0759L127.469 23.2681L125.978 18.7958L130.147 20.0759ZM135.574 34.8538L132.683 38.902L130.797 33.2479L135.574 34.8538ZM134.154 51.1069C137.504 49.4762 140.769 47.6766 143.938 45.715V46.9609L133.995 61.8749H113V58.6159C113 58.1068 119.715 56.6654 120.425 56.4587C125.143 55.0624 129.735 53.2721 134.154 51.1069ZM102.313 37.6874C101.999 38.1047 101.809 38.601 101.762 39.1207C101.391 43.196 101.462 47.304 100.928 51.366C100.704 53.364 100.253 55.3301 99.584 57.2262C99.2722 58.058 97.8125 61.8749 96.8942 61.8749H89.5336L94.2572 39.5528C94.2652 39.5134 94.273 39.4733 94.2797 39.4336C94.6691 37.0572 95.892 34.8971 97.7292 33.3403C99.5663 31.7835 101.898 30.9317 104.306 30.9374H107.375L102.313 37.6874ZM104.311 15.5361C108.773 14.1777 113.33 13.1553 117.944 12.4775L129.459 47.0168C126.846 48.1893 124.165 49.2591 121.438 50.2213V48.9768L123.426 46.988C123.844 46.5706 124.119 46.0325 124.214 45.4498C124.309 44.8671 124.218 44.2693 123.954 43.7413L121.438 38.7108V37.9686C121.441 36.3052 121.115 34.6575 120.478 33.1208C119.842 31.5841 118.907 30.1887 117.727 29.0154C113.949 25.2519 109.238 25.3124 104.306 25.3124C100.576 25.3032 96.965 26.6183 94.1147 29.0234C91.2645 31.4284 89.3605 34.7673 88.7422 38.445L84.9805 56.2274C83.48 56.201 81.989 56.1349 80.5082 56.0386C82.2507 51.5986 82.5376 46.7199 81.3275 42.1063C80.1175 37.4928 77.4731 33.3829 73.7758 30.3696C83.1463 23.9106 93.4416 18.9093 104.311 15.5361ZM59.5625 36.5624C56.4603 36.5624 54.0609 38.0129 51.9297 39.5809C49.3486 41.4793 45.9862 45.5845 42.8221 49.9228C42.7337 49.2232 42.6888 48.5187 42.6875 47.8134C42.6887 45.1955 43.299 42.6138 44.47 40.2724C45.6411 37.931 47.3409 35.8941 49.435 34.323C51.529 32.7518 53.9599 31.6894 56.5354 31.2198C59.1108 30.7502 61.7602 30.8862 64.2741 31.6172C66.7879 32.3481 69.0972 33.6539 71.0193 35.4313C72.9414 37.2086 74.4236 39.4088 75.3487 41.8579C76.2739 44.3069 76.6165 46.9376 76.3495 49.5419C76.0826 52.1461 75.2134 54.6526 73.8106 56.863C73.7881 56.895 73.7663 56.9274 73.7449 56.9601C71.9467 59.751 69.365 61.9492 66.323 63.2794C65.8829 63.472 65.435 63.6422 64.9822 63.7958C65.2733 63.2056 65.5573 62.6329 65.8305 62.0827C68.7228 56.2531 70.8125 52.042 70.8125 47.8124C70.8092 44.8297 69.6228 41.9702 67.5138 39.8611C65.4047 37.7521 62.5452 36.5657 59.5625 36.5624ZM81.7278 86.5546C81.2075 88.3546 80.1177 89.9374 78.6218 91.0656C77.1259 92.1939 75.3046 92.8068 73.4309 92.8124C71.6203 92.8118 69.8558 92.2418 68.3869 91.1831C66.9181 90.1244 65.8194 88.6307 65.2462 86.9132L60.6703 73.1847C61.0876 72.1806 61.5161 71.1836 61.9637 70.1795C63.2239 70.047 64.4706 69.8075 65.6902 69.4637L70.9573 85.2643C71.144 85.8243 71.5021 86.3113 71.9808 86.6564C72.4596 87.0015 73.0348 87.1873 73.625 87.1874C73.6454 87.1874 73.6661 87.1874 73.6865 87.1874C74.2871 87.1743 74.8677 86.9693 75.3433 86.6024C75.8189 86.2355 76.1645 85.7259 76.3296 85.1483L79.7218 73.2736C80.1501 71.7693 81.0129 70.425 82.2021 69.409C83.3912 68.3929 84.8537 67.7505 86.4064 67.5621C86.7228 67.5217 89.3884 67.5009 89.3884 67.5009C86.8474 69.6201 85.1994 72.6197 84.7734 75.9008L81.7278 86.5546ZM90.5 126.562V130.874L76.4375 144.866V126.562H90.5ZM87.7121 168.75C85.5133 168.75 83.3624 168.107 81.5243 166.9C79.6862 165.694 78.2411 163.976 77.367 161.958C76.4929 159.94 76.2278 157.711 76.6046 155.545C76.9813 153.378 77.9834 151.37 79.4873 149.766L90.5134 138.797C90.622 142.991 91.456 147.135 92.9785 151.045L88.5112 155.513C88.132 155.892 87.8691 156.372 87.7536 156.895C87.638 157.419 87.6747 157.965 87.8592 158.469C88.0437 158.972 88.3683 159.413 88.7949 159.738C89.2214 160.063 89.7321 160.259 90.2666 160.304L98.8268 161.016C101.32 164.044 104.282 166.655 107.599 168.75H87.7121ZM160.812 168.75H127.062C118.86 168.741 110.997 165.478 105.197 159.678C99.3968 153.878 96.1343 146.015 96.125 137.812V87.1874C96.125 86.6651 95.9795 86.1532 95.705 85.7089C95.4304 85.2646 95.0375 84.9056 94.5704 84.672C93.3365 84.0545 92.2892 83.1195 91.5363 81.9632C90.7834 80.8069 90.3521 79.471 90.2865 78.0927C90.221 76.7145 90.5238 75.3436 91.1636 74.1211C91.8034 72.8986 92.7572 71.8685 93.927 71.1368L97.9071 68.6495C101.501 74.6193 106.561 79.5717 112.607 83.0368L111.256 89.1561C110.83 90.5117 110.785 91.9582 111.126 93.3374C111.467 94.7167 112.181 95.9756 113.189 96.9767C116.972 100.767 119.774 105.421 121.354 110.538L128.778 134.667C129.303 136.396 130.37 137.909 131.823 138.982C133.276 140.055 135.036 140.631 136.842 140.625H138.312C139.058 140.626 139.773 140.922 140.3 141.45C140.828 141.977 141.124 142.692 141.125 143.437C141.125 144.396 141.288 145.347 141.609 146.25H135.5V151.875H149.562C150.308 151.876 151.023 152.172 151.55 152.7C152.078 153.227 152.374 153.942 152.375 154.687C152.375 155.646 152.538 156.597 152.859 157.5H146.75V163.125H160.812C161.558 163.125 162.274 163.421 162.801 163.949C163.329 164.476 163.625 165.191 163.625 165.937C163.625 166.683 163.329 167.399 162.801 167.926C162.274 168.454 161.558 168.75 160.812 168.75Z" fill="#F0D770"/>
<path d="M122.261 136.989L126.239 133.011C119.906 126.698 114.425 119.584 109.936 111.851L105.067 114.668C109.802 122.825 115.582 130.329 122.261 136.989Z" fill="#F0D770"/>
<path d="M107.086 106.529C106.075 104.526 105.184 102.466 104.417 100.357L99.082 102.139C99.9253 104.489 100.913 106.784 102.039 109.012L107.086 106.529Z" fill="#F0D770"/>
<path d="M117.523 153.486C122.159 158.174 126.962 161.368 131.798 162.979L133.577 157.643C129.587 156.312 125.531 153.583 121.523 149.529L117.523 153.486Z" fill="#F0D770"/>
<path d="M107.132 128.232L104.563 129.375L101.992 130.517C102.176 130.932 106.592 140.774 114.111 149.731L118.419 146.115C111.427 137.786 107.174 128.326 107.132 128.232Z" fill="#F0D770"/>
<path d="M24.9283 109.26C24.8018 109.9 21.8367 125.086 21.9453 137.836L27.5703 137.788C27.4648 125.621 30.418 110.5 30.4471 110.349L24.9283 109.26Z" fill="#F0D770"/>
<path d="M33.2755 135.116L38.9005 135.239C38.9356 133.666 38.9806 132.086 39.0365 130.544L33.4154 130.34C33.3567 131.909 33.3103 133.516 33.2755 135.116Z" fill="#F0D770"/>
<path d="M41.3667 103.241L35.7969 102.455C34.8712 109.011 34.1832 116.01 33.7522 123.257L39.3673 123.591C39.7892 116.495 40.4618 109.648 41.3667 103.241Z" fill="#F0D770"/>
<path d="M36.7036 96.6128L42.2491 97.5529C43.3176 91.049 44.7987 84.6196 46.6834 78.3038L41.3045 76.6606C39.349 83.2069 37.8122 89.8711 36.7036 96.6128Z" fill="#F0D770"/>
<path d="M50.778 67.5642L45.8516 64.8516C44.8003 66.9025 43.8916 69.0235 43.1319 71.1994L48.4116 73.14C49.0789 71.2321 49.8693 69.3696 50.778 67.5642Z" fill="#F0D770"/>
<path d="M28.625 56.2499H23V61.8749H28.625V56.2499Z" fill="#F0D770"/>
<path d="M23 39.3749H17.375V44.9999H23V39.3749Z" fill="#F0D770"/>
<path d="M23 163.125H17.375V168.75H23V163.125Z" fill="#F0D770"/>
<path d="M34.25 168.75H28.625V174.375H34.25V168.75Z" fill="#F0D770"/>
</svg>
