<svg width="180" height="180" viewBox="0 0 180 180" fill="none" xmlns="http://www.w3.org/2000/svg">
<path d="M140.625 131.022V123.072C141.15 123.123 141.68 123.152 142.214 123.152C147.721 123.152 152.402 120.408 154.431 115.991C154.692 115.421 154.756 114.781 154.613 114.171C154.469 113.562 154.126 113.017 153.637 112.625L138.642 100.569C137.343 97.9039 135.461 95.5649 133.136 93.7256C130.81 91.8864 128.1 90.5939 125.208 89.944L113.728 87.3916L89.4987 68.5479L81.5804 49.5424L88.0784 46.2933C91.1988 44.7463 93.8234 42.3559 95.6543 39.3932C97.4853 36.4305 98.4495 33.0139 98.4375 29.5311C98.4376 25.79 97.5597 22.101 95.8743 18.761C94.189 15.421 91.7433 12.5231 88.7339 10.3005C85.7246 8.07791 82.2356 6.5926 78.5477 5.96407C74.8597 5.33554 71.0757 5.58133 67.5 6.68166C65.7405 6.13837 63.9235 5.80292 62.086 5.68217C61.5772 5.6435 61.0478 5.62486 60.4688 5.62486C54.3752 5.60458 48.5075 7.92999 44.0822 12.119C39.6568 16.308 37.0131 22.0394 36.6993 28.1249H47.8125V22.4999H43.5769C44.4886 20.2884 45.8363 18.2832 47.5397 16.6038C47.821 16.3226 48.1131 16.0554 48.4095 15.7952L50.9098 20.9206L52.5621 20.1152C51.2819 23.0892 50.6228 26.2933 50.625 29.5311V33.7499H28.125C27.3791 33.7499 26.6637 34.0462 26.1363 34.5736C25.6088 35.1011 25.3125 35.8164 25.3125 36.5624V39.3749C25.3159 42.3575 26.5022 45.2171 28.6113 47.3261C30.7203 49.4352 33.5799 50.6215 36.5625 50.6249V53.4374C36.5625 53.874 36.6642 54.3047 36.8596 54.6953L45.2971 71.5703C45.5307 72.0374 45.8897 72.4303 46.334 72.7048C46.7783 72.9794 47.2902 73.1249 47.8125 73.1249H56.25V87.1874C54.2764 87.1889 52.3378 87.7094 50.6289 88.6967C48.9199 89.684 47.5007 91.1034 46.5135 92.8124H33.75C33.0041 92.8124 32.2887 93.1087 31.7613 93.6361C31.2338 94.1636 30.9375 94.879 30.9375 95.6249V104.062C30.9375 104.432 31.0102 104.797 31.1516 105.139C31.2929 105.48 31.5001 105.79 31.7612 106.051L33.75 108.04V116.784L30.6179 115.531C29.0485 114.909 27.7029 113.829 26.7565 112.431C25.8102 111.033 25.307 109.382 25.3125 107.694V89.9999C25.3143 88.5086 25.9075 87.0789 26.962 86.0243C28.0165 84.9698 29.4462 84.3766 30.9375 84.3749H50.625V78.7499H30.9375C27.9549 78.7532 25.0953 79.9396 22.9863 82.0486C20.8772 84.1577 19.6909 87.0172 19.6875 89.9999V107.694C19.6783 110.507 20.5169 113.258 22.094 115.588C23.6712 117.917 25.9136 119.717 28.529 120.754L35.518 123.549C35.9448 123.719 36.4068 123.783 36.8638 123.734C37.3208 123.685 37.7587 123.524 38.1393 123.266C38.5199 123.009 38.8316 122.662 39.047 122.256C39.2624 121.85 39.375 121.397 39.375 120.937V106.875C39.375 106.506 39.3023 106.14 39.161 105.799C39.0196 105.457 38.8125 105.147 38.5513 104.886L36.5625 102.897V98.4374H45V116.133C44.9909 118.946 45.8294 121.696 47.4063 124.025C48.9832 126.354 51.2252 128.154 53.8401 129.19L60.8305 131.986C61.2573 132.157 61.7193 132.22 62.1763 132.171C62.6333 132.122 63.0712 131.962 63.4518 131.704C63.8324 131.446 64.1441 131.099 64.3595 130.693C64.5749 130.287 64.6875 129.834 64.6875 129.375V115.312C64.6875 114.943 64.6148 114.577 64.4735 114.236C64.3321 113.895 64.125 113.585 63.8638 113.324L61.875 111.335V106.875H66.9301L71.1211 113.157C73.1079 116.144 76.1635 118.256 79.6595 119.058L109.788 126.01C110.356 132.434 113.335 138.405 118.125 142.723V148.256L105.316 168.75H96.281C96.8879 167.532 97.8752 166.544 99.0935 165.937L99.688 165.642C100.235 165.37 100.678 164.928 100.952 164.381L109.389 147.506C109.653 146.978 109.744 146.381 109.649 145.798C109.555 145.215 109.279 144.677 108.862 144.26C104.406 139.806 101.72 133.886 101.303 127.601L95.6904 127.974C96.1513 134.917 98.8909 141.515 103.484 146.742L96.3401 161.03C94.4212 162.038 92.8155 163.553 91.6977 165.41C90.5798 167.267 89.9927 169.395 90 171.562C90 172.308 90.2963 173.024 90.8238 173.551C91.3512 174.079 92.0666 174.375 92.8125 174.375H106.875C107.352 174.375 107.821 174.254 108.238 174.022C108.656 173.791 109.007 173.458 109.26 173.053L123.323 150.553C123.602 150.106 123.75 149.59 123.75 149.062V146.579C123.774 146.592 123.797 146.605 123.82 146.617L131.027 150.22L124.573 160.975C122.625 161.972 120.992 163.49 119.854 165.358C118.716 167.227 118.118 169.374 118.125 171.562C118.125 172.308 118.421 173.024 118.949 173.551C119.476 174.079 120.192 174.375 120.938 174.375H135C135.463 174.375 135.919 174.261 136.327 174.042C136.735 173.824 137.083 173.508 137.34 173.123L154.215 147.81C154.576 147.269 154.738 146.62 154.674 145.973C154.61 145.326 154.323 144.721 153.863 144.261L140.625 131.022ZM142.214 117.527C141.682 117.525 141.151 117.482 140.625 117.4V109.381L148.092 115.383C146.51 116.934 144.176 117.527 142.214 117.527ZM78.3633 42.2992C78.6203 41.3457 78.7503 40.3624 78.75 39.3749V36.5624C78.75 35.8164 78.4537 35.1011 77.9263 34.5736C77.3988 34.0462 76.6834 33.7499 75.9375 33.7499H73.125V29.5311C73.125 28.4122 73.5695 27.3392 74.3607 26.548C75.1518 25.7568 76.2249 25.3124 77.3438 25.3124C78.4627 25.3124 79.5357 25.7568 80.3269 26.548C81.118 27.3392 81.5625 28.4122 81.5625 29.5311C81.5575 33.7179 80.5828 37.8466 78.7149 41.5936L78.3633 42.2992ZM53.1865 12.7577C55.0503 11.9494 57.0366 11.4594 59.0625 11.3082V11.3255C57.4373 12.7072 56.0027 14.2986 54.7963 16.0578L53.1865 12.7577ZM56.25 29.5311C56.25 29.0576 56.2739 28.5896 56.3094 28.1249H61.875V22.4999H57.6563C58.7459 19.9037 60.4179 17.5929 62.543 15.746L64.9537 20.8827L70.0464 18.4921L67.3394 12.7264C69.1767 11.9386 71.1316 11.4597 73.125 11.3093V16.8749H78.75V11.7466C81.1165 12.3084 83.3464 13.3387 85.3081 14.7767L82.3862 17.6986L86.3638 21.6762L89.2856 18.7543C91.5801 21.8787 92.8159 25.6547 92.8125 29.5311C92.8209 31.9685 92.1461 34.3595 90.8646 36.4329C89.5832 38.5063 87.7464 40.1791 85.5626 41.2617L84.8651 41.6105C86.3943 37.7666 87.1823 33.668 87.1875 29.5311C87.1875 26.9204 86.1504 24.4166 84.3044 22.5705C82.4583 20.7245 79.9545 19.6874 77.3438 19.6874C74.733 19.6874 72.2292 20.7245 70.3832 22.5705C68.5371 24.4166 67.5 26.9204 67.5 29.5311V33.7499H56.25V29.5311ZM30.9375 39.3749H36.5625V44.9999C35.0712 44.9981 33.6415 44.4049 32.587 43.3504C31.5325 42.2959 30.9393 40.8662 30.9375 39.3749ZM133.495 168.75H124.407C125.014 167.532 126.001 166.544 127.22 165.937L127.814 165.642C128.295 165.403 128.697 165.031 128.974 164.571L137.411 150.508C137.611 150.176 137.739 149.806 137.789 149.422C137.839 149.037 137.808 148.647 137.7 148.275C137.592 147.903 137.408 147.557 137.159 147.259C136.911 146.962 136.604 146.719 136.258 146.546L126.336 141.585C123.205 139.677 120.473 137.18 118.291 134.232C116.112 131.238 115.313 127.458 115.313 123.75V109.687H109.688V120.215L80.9241 113.578C78.8258 113.096 76.9918 111.828 75.799 110.036L73.6896 106.875H84.375C84.8116 106.875 85.2423 106.773 85.6328 106.578C86.0233 106.383 86.363 106.099 86.625 105.75L95.0625 94.4999L90.5625 91.1249L82.9688 101.25H59.0625C58.3166 101.25 57.6012 101.546 57.0738 102.074C56.5463 102.601 56.25 103.316 56.25 104.062V112.5C56.25 112.869 56.3227 113.235 56.4641 113.576C56.6054 113.917 56.8126 114.227 57.0737 114.489L59.0625 116.477V125.221L55.929 123.967C54.3601 123.346 53.0149 122.266 52.0688 120.868C51.1226 119.471 50.6195 117.821 50.625 116.133V98.4374C50.6268 96.9461 51.22 95.5164 52.2745 94.4618C53.329 93.4073 54.7587 92.8141 56.25 92.8124H75.9375V87.1874H61.875V53.4374H56.25V67.4999H49.5506L42.1875 52.7733V39.3749H73.125C73.1233 40.8662 72.53 42.2959 71.4755 43.3504C70.421 44.4049 68.9913 44.9981 67.5 44.9999H61.875V50.6249H67.5C70.1809 50.6262 72.7734 49.6657 74.8062 47.9178C74.822 47.953 74.8413 47.9903 74.8565 48.0279L84.5912 71.3927C84.778 71.8408 85.0775 72.2329 85.4606 72.5311L110.773 92.2186C111.102 92.4742 111.483 92.6535 111.89 92.7438L123.987 95.4333C126.141 95.9166 128.151 96.8982 129.857 98.299C131.563 99.6999 132.916 101.481 133.809 103.5C134.598 105.282 135.004 107.211 135 109.16V132.187C135 132.557 135.073 132.922 135.214 133.264C135.355 133.605 135.563 133.915 135.824 134.176L148.256 146.608L133.495 168.75Z" fill="#F0D770"/>
<path d="M53.4375 47.8124H47.8125V53.4374H53.4375V47.8124Z" fill="#F0D770"/>
</svg>
