<svg width="180" height="180" viewBox="0 0 180 180" fill="none" xmlns="http://www.w3.org/2000/svg">
<path d="M174.375 53.9999C174.375 47.997 170.15 43.3771 163.611 42.23L162.639 47.7706C168.309 48.7645 168.75 52.7895 168.75 53.9999V72.7881C165.89 72.1128 163.125 70.4049 163.125 67.5003V61.0547H157.5V67.4999C157.488 69.6441 158.184 71.7322 159.479 73.4413L152.075 80.5098C151.689 80.839 151.334 81.202 151.013 81.5944C150.775 81.5744 150.537 81.5614 150.296 81.5614H137.812C136.833 81.5617 135.857 81.6634 134.898 81.8648L153.864 62.8994C153.878 62.885 153.891 62.8688 153.904 62.854C153.912 62.8459 153.921 62.8393 153.928 62.8308C158.643 57.7933 160.511 52.7519 159.483 47.8465C158.848 44.8168 157.167 42.3168 155.253 40.3449L154.68 33.527L149.073 33.9707L149.217 35.7939C148.332 35.3017 147.685 35.0029 147.448 34.8978L144.949 33.6494L142.001 26.4248L136.791 28.5503L137.314 29.8328L133.497 27.9245L130.898 21.504L125.508 23.1443L125.865 24.108L125.539 23.9452L115.019 11.2186C114.995 11.1898 114.971 11.1613 114.946 11.1336C112.435 8.33126 109.226 5.47657 104.505 5.62915C98.0898 5.82321 95.007 7.44567 91.8485 10.1819C91.4101 10.5617 91.0999 11.0679 90.9603 11.6309C90.8208 12.1939 90.8588 12.7864 91.0691 13.327C91.2793 13.8676 91.6516 14.33 92.1349 14.6508C92.6182 14.9716 93.1889 15.1351 93.7688 15.1189L98.6534 14.9828L107.575 26.4525L90.0703 20.9766C89.4024 20.7677 88.6806 20.8153 88.0459 21.1101C87.4112 21.4049 86.9092 21.9258 86.638 22.5709C86.092 23.8699 85.8131 25.2655 85.818 26.6745C85.8228 28.0835 86.1112 29.4772 86.6661 30.7724C87.2209 32.0676 88.0308 33.2378 89.0476 34.2133C90.0643 35.1889 91.267 35.9498 92.584 36.4506L92.6378 36.4703L135.423 51.752L132.188 54.8838V52.4727H126.562V60.3333L123.75 63.0583V58.0977H118.125V68.5082L111.223 75.1946C110.715 75.0286 110.203 74.8727 109.688 74.7266V69.5513C110.76 68.9322 111.598 67.9765 112.072 66.8325C112.546 65.6885 112.629 64.4201 112.308 63.224C111.988 62.028 111.282 60.9711 110.299 60.2173C109.317 59.4635 108.113 59.0549 106.875 59.0549C105.637 59.0549 104.433 59.4635 103.451 60.2173C102.468 60.9711 101.762 62.028 101.442 63.224C101.121 64.4201 101.204 65.6885 101.678 66.8325C102.152 67.9765 102.99 68.9322 104.062 69.5513V73.5348C102.199 73.2723 100.32 73.1363 98.4375 73.1277V67.4999H92.8125V73.1249H87.1875V67.4999H81.5625V73.1277C79.6805 73.1363 77.8012 73.2723 75.9375 73.5348V69.5513C77.0099 68.9322 77.848 67.9765 78.3218 66.8325C78.7957 65.6885 78.8788 64.4201 78.5583 63.224C78.2379 62.028 77.5317 60.9711 76.5493 60.2173C75.5669 59.4635 74.3633 59.0549 73.125 59.0549C71.8867 59.0549 70.6831 59.4635 69.7007 60.2173C68.7183 60.9711 68.0121 62.028 67.6917 63.224C67.3712 64.4201 67.4543 65.6885 67.9282 66.8325C68.402 67.9765 69.2401 68.9322 70.3125 69.5513V74.7266C69.7226 74.8943 69.1358 75.0719 68.5547 75.2652L65.25 71.9606V61.8749H59.625V66.3341L56.8125 63.5216V56.2499H51.1875V57.8966L46.7968 53.5077L81.039 21.5475C82.0735 20.5893 82.9026 19.4309 83.4761 18.1426C84.0495 16.8543 84.3553 15.4629 84.375 14.0529C84.3807 12.6038 84.1004 11.1677 83.5502 9.82704C82.9999 8.48638 82.1905 7.26747 81.1684 6.24016C80.8826 5.9547 80.5532 5.59188 79.3459 5.62739C79.3347 5.62739 79.3241 5.62493 79.3129 5.62493C71.3825 5.62709 63.7142 8.46388 57.6918 13.6233L45.5625 24.1477V22.4999H39.9375V29.7727L37.125 32.5852V30.9374H31.5V38.2102L29.5112 40.1986C26.0053 43.7126 24.0364 48.4737 24.0364 53.4374C24.0364 58.4012 26.0053 63.1623 29.5112 66.6762C29.5147 66.6797 29.5186 66.6825 29.5221 66.6857L44.608 81.7734C43.8086 81.6343 42.9989 81.5637 42.1875 81.5624C42.1875 81.5624 29.2247 81.5754 28.987 81.5955C28.6662 81.203 28.3108 80.8401 27.9253 80.5109L20.5211 73.4413C21.8161 71.7324 22.5116 69.6441 22.5 67.4999V51.289L25.0154 46.2578C25.226 45.8368 25.3275 45.3696 25.3107 44.8992C25.2938 44.4287 25.1591 43.97 24.919 43.5651C24.6788 43.1602 24.3409 42.822 23.9361 42.5817C23.5314 42.3413 23.0728 42.2063 22.6023 42.1892C20.752 42.122 17.4846 42.0377 16.3891 42.2296C9.85008 43.3768 5.625 47.9966 5.625 53.9999V75.9374C5.625 76.6833 5.92132 77.3987 6.44876 77.9262C6.97621 78.4536 7.69158 78.7499 8.4375 78.7499C11.0915 78.7521 13.7117 78.1537 16.1016 76.9995L23.6109 84.1689C22.1903 85.6456 21.3601 87.5918 21.2776 89.6392C21.1777 89.5798 21.0817 89.5142 20.99 89.4427L12.4576 81.2966L8.5732 85.3649C8.5732 85.3649 17.2874 93.6815 17.3384 93.7237C18.8136 94.9491 20.6707 95.6206 22.5886 95.6221C22.8505 95.6221 23.1131 95.6095 23.375 95.5841C24.1637 96.4855 25.137 97.2067 26.2288 97.6989C27.3206 98.1911 28.5055 98.4429 29.7032 98.4371H34.1104C32.1374 99.2935 30.1686 100.158 28.2041 101.032C26.4315 101.824 24.685 102.537 23.3733 104.032C22.2944 103.928 21.2057 104.039 20.1699 104.358C19.1341 104.677 18.1716 105.198 17.338 105.891C17.287 105.932 17.2378 105.976 17.1904 106.022L8.63754 114.184C7.45925 115.208 6.57765 116.53 6.08483 118.011C5.59201 119.493 5.50605 121.08 5.83594 122.606C5.69635 122.945 5.62468 123.308 5.625 123.675V145.612C5.625 151.615 9.85008 156.235 16.3891 157.382C17.2314 157.48 18.0794 157.52 18.9271 157.5C20.1885 157.5 21.6025 157.459 22.6023 157.422C23.0727 157.405 23.5313 157.27 23.936 157.03C24.3407 156.789 24.6786 156.451 24.9188 156.046C25.1589 155.642 25.2936 155.183 25.3105 154.713C25.3274 154.242 25.2259 153.775 25.0154 153.354L22.5 148.324V132.112C22.512 129.967 21.8163 127.878 20.5207 126.169C20.5207 126.169 28.665 118.41 28.9863 118.019C29.2243 118.04 29.463 118.053 29.7035 118.053H38.8733L31.1389 125.435C29.9607 126.459 29.079 127.781 28.586 129.262C28.0929 130.743 28.0066 132.33 28.3359 133.856C28.1963 134.195 28.1247 134.558 28.125 134.925V156.862C28.125 162.865 32.3501 167.485 38.8891 168.632C39.7314 168.73 40.5794 168.77 41.4271 168.75C42.6885 168.75 44.1025 168.709 45.1023 168.672C45.5727 168.655 46.0313 168.52 46.436 168.28C46.8407 168.039 47.1786 167.701 47.4188 167.296C47.6589 166.892 47.7936 166.433 47.8105 165.963C47.8274 165.492 47.7259 165.025 47.5154 164.604L45 159.574V143.362C45.012 141.217 44.3163 139.128 43.0207 137.419L50.425 130.352C50.8105 130.023 51.1658 129.66 51.4863 129.268C51.7243 129.288 59.9186 129.301 59.9186 129.301C60.2708 129.775 60.6528 130.227 61.0622 130.654C57.9759 131.931 55.3374 134.094 53.4798 136.87C51.6221 139.646 50.6287 142.91 50.625 146.25V156.094C50.6305 160.94 52.5583 165.587 55.9855 169.014C59.4127 172.442 64.0594 174.369 68.9062 174.375H73.125C76.1087 174.375 78.9702 173.19 81.0799 171.08C83.1897 168.97 84.375 166.109 84.375 163.125C84.375 160.141 83.1897 157.28 81.0799 155.17C78.9702 153.06 76.1087 151.875 73.125 151.875H70.3125V146.25H73.125C75.4274 146.251 77.6947 145.686 79.7277 144.605C81.7607 143.524 83.4971 141.961 84.7842 140.052L80.1232 136.903C79.3508 138.049 78.3086 138.988 77.0884 139.637C75.8681 140.286 74.5071 140.625 73.125 140.625H70.3125V134.97C70.6124 134.989 93.0955 135 93.0955 135C93.7479 138.174 95.4747 141.026 97.9847 143.075C100.495 145.125 103.635 146.246 106.875 146.25H109.688V151.875H106.875C103.891 151.875 101.03 153.06 98.9201 155.17C96.8103 157.28 95.625 160.141 95.625 163.125C95.625 166.109 96.8103 168.97 98.9201 171.08C101.03 173.19 103.891 174.375 106.875 174.375H111.094C115.941 174.369 120.587 172.442 124.014 169.014C127.442 165.587 129.37 160.94 129.375 156.094V146.25C129.371 142.91 128.378 139.646 126.52 136.87C124.663 134.094 122.024 131.931 118.938 130.654C119.347 130.228 119.729 129.776 120.081 129.301H127.796C128.037 129.301 128.276 129.288 128.514 129.268C128.834 129.661 129.189 130.024 129.575 130.353L136.979 137.419C135.684 139.128 134.988 141.217 135 143.362V159.574L132.485 164.605C132.274 165.026 132.173 165.494 132.19 165.964C132.206 166.434 132.341 166.893 132.581 167.298C132.821 167.703 133.159 168.041 133.564 168.281C133.969 168.522 134.427 168.656 134.898 168.674C139.279 168.834 143.501 168.84 147.19 166.138C148.648 165.072 149.833 163.675 150.647 162.063C151.461 160.451 151.882 158.669 151.875 156.863V134.925C151.875 134.558 151.804 134.195 151.664 133.856C151.994 132.33 151.908 130.743 151.415 129.262C150.923 127.78 150.041 126.458 148.863 125.434L141.129 118.051H150.296C150.537 118.051 150.776 118.038 151.014 118.018C151.334 118.411 151.689 118.774 152.075 119.103L159.479 126.169C158.184 127.878 157.488 129.967 157.5 132.112V148.324L154.985 153.355C154.774 153.776 154.673 154.244 154.69 154.714C154.706 155.184 154.841 155.643 155.081 156.048C155.321 156.453 155.659 156.791 156.064 157.031C156.469 157.272 156.927 157.406 157.398 157.424C158.398 157.459 159.812 157.501 161.073 157.501C161.921 157.521 162.769 157.482 163.611 157.384C170.15 156.236 174.375 151.618 174.375 145.614V123.676C174.375 123.309 174.304 122.946 174.164 122.607C174.494 121.081 174.408 119.494 173.915 118.013C173.423 116.531 172.541 115.209 171.363 114.185L162.809 106.021C162.761 105.976 162.712 105.932 162.661 105.89C161.827 105.198 160.865 104.677 159.829 104.358C158.793 104.04 157.704 103.929 156.626 104.033C155.792 103.082 154.754 102.333 153.589 101.843C153.404 101.7 145.89 98.4374 145.89 98.4374H150.296C151.494 98.4433 152.68 98.1916 153.772 97.6994C154.864 97.2071 155.838 96.4859 156.627 95.5845C156.888 95.6098 157.15 95.6225 157.411 95.6225C159.329 95.6209 161.186 94.9494 162.662 93.724C162.713 93.6818 162.762 93.6378 162.81 93.5918L171.362 85.4275C172.541 84.404 173.423 83.0823 173.916 81.6009C174.409 80.1194 174.494 78.5327 174.163 77.0069C174.303 76.6677 174.375 76.3043 174.375 75.9374V53.9999ZM17.1721 49.367C16.9767 49.7576 16.875 50.1882 16.875 50.6249V67.4999C16.875 70.4045 14.11 72.1124 11.25 72.7878V53.9999C11.25 52.7916 11.6898 48.7764 17.3373 47.7748C17.4656 47.7593 17.6889 47.7491 17.9838 47.7435L17.1721 49.367ZM17.3373 151.838C11.6898 150.836 11.25 146.821 11.25 145.613V126.824C14.11 127.5 16.875 129.208 16.875 132.112V148.987C16.875 149.424 16.9767 149.854 17.1721 150.245L17.9838 151.869C17.6899 151.863 17.4656 151.853 17.3373 151.838ZM16.1016 122.612C14.575 121.869 12.9466 121.357 11.2697 121.093C11.2116 120.6 11.2763 120.1 11.458 119.638C11.6397 119.177 11.9327 118.767 12.311 118.445C12.3616 118.403 12.4107 118.359 12.4583 118.314L20.9914 110.171C21.0831 110.099 21.1791 110.034 21.279 109.974C21.3614 112.022 22.1917 113.968 23.6127 115.444L16.1016 122.612ZM168.75 145.613C168.75 146.821 168.31 150.836 162.663 151.838C162.534 151.853 162.311 151.863 162.016 151.869L162.828 150.245C163.023 149.854 163.125 149.424 163.125 148.987V132.112C163.125 129.208 165.89 127.5 168.75 126.824V145.613ZM158.481 111.66C158.618 111.107 158.699 110.542 158.723 109.973C158.822 110.032 158.918 110.098 159.01 110.169L167.543 118.312C167.59 118.358 167.639 118.401 167.69 118.443C168.069 118.765 168.362 119.175 168.543 119.637C168.725 120.099 168.79 120.598 168.732 121.091C167.055 121.356 165.426 121.867 163.9 122.61L156.389 115.443C157.404 114.385 158.125 113.081 158.481 111.66ZM147.625 41.3894C148.158 41.7265 148.739 42.1234 149.328 42.5784C151.129 43.9691 153.398 46.2156 153.98 49.019C154.478 51.4216 153.681 54.0499 151.609 56.8564L143.994 49.8954L147.625 41.3894ZM102.957 11.3529C103.486 11.3051 104.057 11.2714 104.675 11.2524C106.632 11.1965 108.341 12.2016 110.72 14.8475L119.596 25.5842L115.928 28.0297L102.957 11.3529ZM94.5577 31.1835C93.9505 30.9514 93.3964 30.5991 92.9285 30.1478C92.4607 29.6965 92.0887 29.1554 91.8348 28.557C91.6641 28.1596 91.5466 27.7414 91.4854 27.3132L114.372 34.4773C114.829 34.6204 115.313 34.6585 115.787 34.5887C116.261 34.519 116.714 34.3432 117.11 34.0744L123.951 29.4401L142.624 38.7773L139.078 47.0857L94.5577 31.1835ZM140.683 54.4865L147.808 61.0024L130.199 78.6093C128.518 80.2963 126.405 81.4883 124.091 82.0546C121.855 80.3046 119.447 78.7852 116.905 77.5195L140.683 54.4865ZM61.3501 17.8945C63.8176 15.7799 66.6393 14.1178 69.685 12.9849L58.5837 22.4999H55.9768L61.3501 17.8945ZM49.539 28.1249H59.625C60.2965 28.125 60.9458 27.8848 61.4556 27.4478L78.6196 12.736C78.7141 13.1359 78.7579 13.5461 78.75 13.957C78.7411 14.6112 78.5994 15.2569 78.3335 15.8547C78.0676 16.4526 77.6831 16.9902 77.2031 17.435L42.8175 49.5284L35.4765 42.1874L49.539 28.1249ZM31.7148 46.3798L38.7717 53.4374L31.7138 60.495C30.3711 58.386 29.6579 55.9376 29.6579 53.4374C29.6579 50.9372 30.3711 48.4889 31.7138 46.3798H31.7148ZM35.4776 64.6874L42.75 57.4147L62.9374 77.6024C59.8306 79.1646 56.9293 81.1057 54.2999 83.3814C53.9063 83.0712 53.5307 82.739 53.1749 82.3861L35.4776 64.6874ZM29.7035 92.8124C28.395 92.8124 26.8945 91.8165 26.8945 89.7071C26.8945 88.8004 27.8318 87.712 28.6724 87.3818C29.0009 87.2533 29.3507 87.1873 29.7035 87.1874H42.1875C43.2961 87.1843 44.3944 87.401 45.4187 87.8251C46.443 88.2492 47.373 88.8723 48.1549 89.6582C48.202 89.7053 48.246 89.7556 48.292 89.8041C47.562 90.7711 46.8729 91.7739 46.2248 92.8124H29.7035ZM29.7035 112.426C29.3531 112.426 29.0056 112.361 28.6791 112.234C27.3618 111.72 26.5816 109.64 27.1649 108.411C27.4252 107.857 27.8597 107.403 28.402 107.119L43.8398 112.265C43.3016 112.372 29.7035 112.426 29.7035 112.426ZM39.8373 163.086C34.1898 162.086 33.75 158.071 33.75 156.863V138.074C36.61 138.75 39.375 140.458 39.375 143.362V160.237C39.375 160.674 39.4767 161.104 39.6721 161.495L40.4838 163.119C40.1899 163.113 39.9656 163.103 39.8373 163.088V163.086ZM38.6016 133.862C37.075 133.119 35.4466 132.607 33.7697 132.343C33.7116 131.85 33.7763 131.35 33.958 130.888C34.1397 130.427 34.4327 130.017 34.811 129.695C34.8616 129.653 34.9107 129.609 34.9583 129.564L43.4914 121.421C43.5831 121.349 43.6791 121.284 43.779 121.224C43.8614 123.272 44.6917 125.218 46.1127 126.694L38.6016 133.862ZM52.2035 123.676C51.8548 123.658 51.5101 123.594 51.1787 123.484C49.2627 122.959 49.3066 120.586 49.6318 119.728C49.6431 119.706 49.654 119.684 49.6645 119.661C49.8904 119.179 50.2494 118.771 50.6993 118.486C51.1492 118.2 51.6712 118.05 52.2039 118.051H53.3707L56.585 123.676H52.2035ZM56.25 146.25C56.2532 143.756 57.0831 141.335 58.6099 139.363C60.1367 137.392 62.2741 135.982 64.6875 135.356V151.875H56.25V146.25ZM73.125 157.5C74.6168 157.5 76.0476 158.093 77.1025 159.147C78.1574 160.202 78.75 161.633 78.75 163.125C78.75 164.617 78.1574 166.048 77.1025 167.102C76.0476 168.157 74.6168 168.75 73.125 168.75H68.9062C65.7941 168.746 62.7922 167.597 60.4725 165.523C58.1528 163.448 56.6775 160.592 56.3277 157.5H73.125ZM106.875 140.625C105.131 140.623 103.43 140.081 102.005 139.074C100.581 138.067 99.503 136.644 98.9195 135H109.688V140.625H106.875ZM111.094 168.75H106.875C105.383 168.75 103.952 168.157 102.898 167.102C101.843 166.048 101.25 164.617 101.25 163.125C101.25 161.633 101.843 160.202 102.898 159.147C103.952 158.093 105.383 157.5 106.875 157.5H123.672C123.323 160.592 121.847 163.448 119.528 165.523C117.208 167.597 114.206 168.746 111.094 168.75ZM123.75 146.25V151.875H115.312V135.356C117.726 135.982 119.863 137.392 121.39 139.363C122.917 141.335 123.747 143.756 123.75 146.25ZM116.11 125.123C115.37 126.414 114.304 127.486 113.018 128.233C111.731 128.979 110.271 129.373 108.784 129.375H71.216C69.7289 129.373 68.2686 128.979 66.9824 128.233C65.6962 127.486 64.6296 126.414 63.8902 125.123L55.8795 111.105C55.5361 110.504 54.9834 110.051 54.327 109.832L36.0323 103.733L48.9203 98.21C49.4825 97.9691 49.9509 97.5514 50.2545 97.0203C53.4323 91.4754 58.0162 86.8667 63.5439 83.6589C69.0715 80.4512 75.3473 78.7579 81.7383 78.7499H98.2617C104.653 78.758 110.928 80.4514 116.456 83.6591C121.983 86.8668 126.567 91.4755 129.745 97.0203C130.049 97.5517 130.518 97.9694 131.081 98.21L143.969 103.733L125.673 109.832C125.017 110.051 124.464 110.504 124.121 111.105L116.11 125.123ZM130.481 121.54C130.394 121.978 130.197 122.386 129.908 122.726C129.619 123.066 129.247 123.326 128.828 123.482C128.5 123.61 128.15 123.676 127.797 123.676H123.415L126.63 118.051H127.796C129.774 118.051 130.811 119.94 130.481 121.54ZM146.25 156.863C146.25 158.071 145.81 162.086 140.163 163.088C140.034 163.103 139.811 163.113 139.516 163.119L140.328 161.495C140.523 161.104 140.625 160.674 140.625 160.237V143.362C140.625 140.458 143.39 138.75 146.25 138.074V156.863ZM145.043 129.564C145.09 129.609 145.139 129.653 145.19 129.695C145.569 130.017 145.862 130.427 146.043 130.888C146.225 131.35 146.29 131.85 146.232 132.343C144.555 132.607 142.926 133.119 141.4 133.862L133.889 126.694C135.31 125.217 136.14 123.272 136.223 121.224C136.322 121.284 136.418 121.349 136.51 121.421L145.043 129.564ZM151.598 107.121C152.156 107.412 152.6 107.882 152.86 108.456C153.119 109.029 153.179 109.673 153.029 110.285C152.879 110.896 152.529 111.44 152.033 111.828C151.538 112.217 150.926 112.428 150.297 112.428H137.812C137.258 112.428 136.704 112.374 136.16 112.267L151.598 107.121ZM149.015 92.8275C143.942 92.8275 138.868 92.8244 133.795 92.818C132.998 91.667 131.58 90.4918 132.262 89.2462C132.703 88.4411 134.803 87.4947 135.686 87.4947C137.204 87.1431 146.312 87.1811 149.298 87.1938C150.054 87.145 150.811 87.2541 151.522 87.514C152.135 87.7997 152.619 88.3049 152.877 88.9298C153.136 89.5548 153.15 90.2539 152.918 90.889C152.882 90.9924 152.622 92.8261 149.015 92.8261V92.8275ZM167.693 81.1645C167.641 81.2069 167.591 81.2514 167.542 81.2981L159.012 89.4427C158.92 89.5141 158.824 89.5797 158.724 89.6389C158.641 87.5917 157.811 85.646 156.39 84.1696L163.9 76.9977C165.427 77.7409 167.056 78.253 168.733 78.5172C168.792 79.0099 168.728 79.5094 168.546 79.9711C168.364 80.4328 168.071 80.8423 167.693 81.1631V81.1645Z" fill="#F0D770"/>
<path d="M104.625 120.781L107.274 125.197L112.098 122.303L109.448 117.887C107.671 114.945 105.251 112.442 102.37 110.567C99.4897 108.691 96.2224 107.49 92.8125 107.054V84.3749H87.1875V107.054C83.7773 107.49 80.5097 108.69 77.6288 110.566C74.7478 112.442 72.328 114.945 70.5501 117.887L67.9008 122.303L72.7242 125.197L75.3736 120.781C76.6495 118.671 78.3652 116.862 80.404 115.475C82.4427 114.088 84.7564 113.157 87.1875 112.746V123.75H92.8125V112.746C95.2433 113.158 97.5567 114.088 99.5952 115.475C101.634 116.862 103.349 118.672 104.625 120.781Z" fill="#F0D770"/>
<path d="M67.5 89.9999H61.875V95.6249H67.5V89.9999Z" fill="#F0D770"/>
<path d="M81.5625 89.9999H75.9375V95.6249H81.5625V89.9999Z" fill="#F0D770"/>
<path d="M73.125 101.25H67.5V106.875H73.125V101.25Z" fill="#F0D770"/>
<path d="M118.125 89.9999H112.5V95.6249H118.125V89.9999Z" fill="#F0D770"/>
<path d="M104.062 89.9999H98.4375V95.6249H104.062V89.9999Z" fill="#F0D770"/>
<path d="M112.5 101.25H106.875V106.875H112.5V101.25Z" fill="#F0D770"/>
</svg>
