<svg width="800" height="800" viewBox="0 0 800 800" fill="none" xmlns="http://www.w3.org/2000/svg">
<path d="M299.999 516.667C318.409 516.667 333.333 501.743 333.333 483.333C333.333 464.924 318.409 450 299.999 450C281.59 450 266.666 464.924 266.666 483.333C266.666 501.743 281.59 516.667 299.999 516.667Z" fill="#F0D770"/>
<path d="M499.999 516.667C518.409 516.667 533.333 501.743 533.333 483.333C533.333 464.924 518.409 450 499.999 450C481.59 450 466.666 464.924 466.666 483.333C466.666 501.743 481.59 516.667 499.999 516.667Z" fill="#F0D770"/>
<path d="M216.666 316.667V489.05C216.666 497.807 218.391 506.478 221.742 514.568C225.094 522.658 230.006 530.009 236.199 536.2L283.333 583.333L317.166 718.65C321.783 737.125 332.443 753.526 347.452 765.246C362.46 776.966 380.957 783.333 399.999 783.333C419.042 783.333 437.538 776.966 452.547 765.246C467.556 753.526 478.216 737.125 482.833 718.65L516.666 583.333L563.799 536.2C569.992 530.009 574.905 522.658 578.257 514.568C581.608 506.478 583.333 497.807 583.333 489.05V316.667C465.151 272.222 334.848 272.222 216.666 316.667Z" stroke="#F0D770" stroke-width="33.3333" stroke-miterlimit="10"/>
<path d="M450 661.283C447.119 672.351 440.647 682.15 431.598 689.144C422.55 696.138 411.437 699.933 400 699.933C388.563 699.933 377.45 696.138 368.402 689.144C359.353 682.15 352.881 672.351 350 661.283" stroke="#F0D770" stroke-width="33.3333" stroke-miterlimit="10"/>
<path d="M400 700V783.333" stroke="#F0D770" stroke-width="33.3333" stroke-miterlimit="10"/>
<path d="M166.666 363.333C129.021 355.649 95.1865 335.194 70.8895 305.43C46.5925 275.666 33.3252 238.422 33.333 200H133.333C155.434 200 176.631 208.78 192.259 224.408C207.887 240.036 216.666 261.232 216.666 283.333V366.667" stroke="#F0D770" stroke-width="33.3333" stroke-miterlimit="10"/>
<path d="M633.333 363.333C670.978 355.649 704.813 335.194 729.11 305.43C753.407 275.666 766.674 238.422 766.666 200H666.666C644.565 200 623.369 208.78 607.741 224.408C592.113 240.036 583.333 261.232 583.333 283.333V366.667" stroke="#F0D770" stroke-width="33.3333" stroke-miterlimit="10"/>
<path d="M383.333 283.333C366.667 183.333 316.667 16.6667 150 16.6667C66.6667 16.6667 50 50.0001 50 50.0001C250 66.6667 233.333 300 233.333 300" stroke="#F0D770" stroke-width="33.3333" stroke-miterlimit="10"/>
<path d="M416.666 283.333C433.333 183.333 483.333 16.6667 649.999 16.6667C733.333 16.6667 749.999 50.0001 749.999 50.0001C549.999 66.6667 566.666 300 566.666 300" stroke="#F0D770" stroke-width="33.3333" stroke-miterlimit="10"/>
</svg>
