<svg width="180" height="180" viewBox="0 0 180 180" fill="none" xmlns="http://www.w3.org/2000/svg">
<path d="M160.312 108.668V91.5046C160.323 86.5227 158.936 81.6377 156.31 77.4045C159.178 78.7064 161.61 80.806 163.317 83.4527C165.024 86.0993 165.934 89.1813 165.937 92.3308V98.919C165.954 104.755 168.271 110.35 172.386 114.489L176.364 110.511C173.3 107.43 171.575 103.264 171.562 98.919V92.3308C171.555 86.5618 169.286 81.0258 165.242 76.9111C161.199 72.7964 155.703 70.4311 149.935 70.3229C145.234 66.6698 139.449 64.6869 133.495 64.6874H111.414C106.59 55.2505 99.4257 47.2091 90.6057 41.3324C81.7857 35.4557 71.6055 31.9403 61.0386 31.1223L63.6008 26.7295C63.8501 26.3022 63.9823 25.8167 63.9839 25.3219C63.9856 24.8272 63.8568 24.3408 63.6104 23.9118C63.364 23.4828 63.0088 23.1263 62.5807 22.8784C62.1526 22.6305 61.6666 22.5 61.1719 22.4999C61.1719 22.4999 53.5324 22.4999 47.1653 22.4943H47.1382C41.038 22.4908 35.0843 24.3639 30.085 27.8595L29.8867 27.9976C26.888 30.0838 24.4104 32.8328 22.646 36.0314C20.8817 39.23 19.8781 42.7921 19.7132 46.4413L6.67968 56.8662C6.23043 57.2256 5.9022 57.7141 5.73925 58.2658C5.57631 58.8176 5.5865 59.4061 5.76843 59.9518L8.58093 68.3893C8.76766 68.9495 9.12593 69.4366 9.60498 69.7818C10.084 70.1269 10.6596 70.3126 11.25 70.3124L10.98 70.4861C10.3032 70.7357 9.74812 71.2358 9.42959 71.883C9.11107 72.5303 9.05343 73.2752 9.26859 73.9637L11.0264 79.5887C11.2052 80.1608 11.562 80.6608 12.0449 81.0159C12.5278 81.3709 13.1116 81.5624 13.7109 81.5624H21.0748L41.1901 108.992C46.4032 116.073 54.0123 121.018 62.6003 122.906L59.9955 127.076L38.3878 135.179C37.9954 135.326 37.6408 135.559 37.35 135.861C37.0592 136.162 36.8395 136.525 36.707 136.923L34.5354 143.437H22.5V141.289L27.5312 131.227L42.0001 120.375L38.6251 115.875L23.625 127.125C23.2758 127.387 22.9923 127.727 22.7971 128.117L17.1721 139.367C16.9767 139.758 16.8749 140.188 16.875 140.625V146.25C16.875 146.996 17.1713 147.711 17.6988 148.239C18.2262 148.766 18.9416 149.062 19.6875 149.062H36.5625C37.1528 149.062 37.7282 148.877 38.2071 148.532C38.686 148.186 39.0442 147.699 39.2309 147.139L41.619 139.975L62.8625 132.008C63.4411 131.791 63.9321 131.39 64.2596 130.866L67.5 125.683V139.121L62.6098 142.381C61.5177 143.107 60.6223 144.092 60.0034 145.249C59.3844 146.405 59.0612 147.696 59.0625 149.008V154.687C59.0625 155.433 59.3588 156.149 59.8863 156.676C60.4137 157.204 61.1291 157.5 61.875 157.5H81.5625C82.2127 157.5 82.8428 157.275 83.3457 156.862C83.8485 156.45 84.193 155.877 84.3205 155.239C84.3205 155.239 90 126.748 90 126.562V123.75H101.25C101.5 123.75 130.245 115.945 130.245 115.945L130.471 116.736C131.422 120.098 133.067 123.224 135.3 125.912C137.534 128.599 140.306 130.789 143.437 132.339V136.648L128.21 151.875H118.125V149.727C118.123 149.204 118.267 148.692 118.542 148.247C118.816 147.802 119.21 147.444 119.678 147.211L122.195 145.953C122.466 145.818 122.713 145.639 122.926 145.425L128.551 139.8C129.03 139.322 129.32 138.687 129.368 138.011C129.416 137.336 129.219 136.666 128.812 136.125L127.406 134.252C124.889 130.902 123.05 127.092 121.992 123.037L116.55 124.463C117.784 129.19 119.923 133.635 122.848 137.549L119.27 141.126L117.161 142.181C115.757 142.877 114.576 143.954 113.752 145.287C112.928 146.621 112.494 148.159 112.5 149.727V154.687C112.5 155.433 112.796 156.149 113.324 156.676C113.851 157.204 114.567 157.5 115.312 157.5H129.375C129.744 157.5 130.11 157.427 130.451 157.286C130.793 157.145 131.103 156.937 131.364 156.676L148.239 139.801C148.5 139.54 148.707 139.23 148.848 138.889C148.99 138.547 149.063 138.182 149.062 137.812V134.363C149.99 134.577 150.929 134.737 151.875 134.844V141.7L150.912 142.181C149.508 142.877 148.327 143.954 147.503 145.287C146.678 146.621 146.245 148.159 146.25 149.727V154.687C146.25 155.433 146.546 156.149 147.074 156.676C147.601 157.204 148.317 157.5 149.062 157.5H163.125C163.562 157.5 163.992 157.398 164.383 157.203C164.773 157.008 165.113 156.724 165.375 156.375L173.812 145.125C174.178 144.638 174.375 144.046 174.375 143.437V126.562C174.375 125.904 174.144 125.267 173.723 124.762L160.312 108.668ZM15.4336 74.8384L19.5117 73.3344C20.5042 72.9892 21.3424 72.3037 21.8776 71.3995C22.4129 70.4952 22.6106 69.4306 22.4358 68.3944C22.261 67.3583 21.7249 66.4175 20.9226 65.7389C20.1202 65.0604 19.1035 64.6878 18.0527 64.6874H13.2771L12.3398 61.8749H19.6875V56.2499H16.4552L23.4865 50.6249H33.75V60.8554L21.1827 75.9374H15.7788L15.4336 74.8384ZM45.7246 105.666L26.0687 78.8606L38.725 63.6756C39.1455 63.1698 39.3756 62.5327 39.375 61.8749V47.8124C39.375 47.0665 39.0787 46.3511 38.5512 45.8237C38.0238 45.2962 37.3084 44.9999 36.5625 44.9999H25.4883C25.8352 42.5225 26.6904 40.1435 28.0002 38.0122C29.31 35.8809 31.0461 34.0433 33.0996 32.6147L33.2982 32.4765C37.3552 29.6387 42.1869 28.1175 47.1378 28.1193H47.1603C50.2369 28.1221 53.6094 28.1235 56.2753 28.1242L53.8207 32.3327C53.5714 32.7601 53.4393 33.2457 53.4376 33.7404C53.4359 34.2352 53.5648 34.7216 53.8112 35.1506C54.0576 35.5797 54.4129 35.9361 54.841 36.184C55.2692 36.4319 55.7552 36.5624 56.25 36.5624C66.1315 36.5624 75.8392 39.161 84.3993 44.0975C92.9594 49.034 100.071 56.1347 105.02 64.6874H81.5625C81.0062 64.6874 80.4624 64.8523 79.9998 65.1614C79.5372 65.4705 79.1767 65.9098 78.9639 66.4238C78.751 66.9378 78.6954 67.5034 78.804 68.049C78.9126 68.5946 79.1806 69.0957 79.5741 69.489L80.3275 70.2424C85.1339 75.0378 88.9101 80.7643 91.4245 87.071L91.9694 88.433L89.9838 89.2272C84.0644 91.6009 77.7448 92.8179 71.3672 92.8124H70.3125C69.5666 92.8124 68.8512 93.1087 68.3238 93.6362C67.7963 94.1636 67.5 94.879 67.5 95.6249V117.993C63.2071 117.588 59.0483 116.28 55.296 114.156C51.5436 112.032 48.2824 109.139 45.726 105.666H45.7246ZM168.75 142.5L161.719 151.875H151.875V149.727C151.873 149.204 152.017 148.692 152.292 148.247C152.566 147.802 152.96 147.444 153.428 147.211L155.945 145.953C156.413 145.719 156.805 145.36 157.08 144.916C157.355 144.472 157.5 143.96 157.5 143.437V132.187C157.5 131.441 157.204 130.726 156.676 130.199C156.149 129.671 155.433 129.375 154.687 129.375C150.437 129.375 146.303 127.99 142.909 125.431C139.516 122.872 137.048 119.278 135.879 115.191C134.827 110.939 134.85 106.492 135.947 102.251L130.535 100.717C129.263 105.203 129.004 108.365 129.075 110.433L100.873 118.125H90V104.062H84.375V126.284L79.2566 151.875H64.6875V149.008C64.687 148.622 64.782 148.243 64.9639 147.903C65.1457 147.563 65.4089 147.274 65.7299 147.06L71.8727 142.965C72.2579 142.708 72.5738 142.36 72.7922 141.952C73.0107 141.544 73.125 141.088 73.125 140.625V98.41C79.6247 98.2107 86.0388 96.8702 92.0742 94.4496L96.6709 92.6113C97.0139 92.4741 97.3265 92.2708 97.5908 92.0128C97.8552 91.7548 98.0662 91.4473 98.2117 91.1077C98.3572 90.7682 98.4344 90.4033 98.4389 90.034C98.4433 89.6646 98.375 89.298 98.2378 88.955L96.6484 84.9824C94.5321 79.6746 91.6076 74.7261 87.9785 70.3124H133.495C138.484 70.3112 143.312 72.0722 147.129 75.2845C147.599 75.6772 148.055 76.0931 148.482 76.5199C150.455 78.4833 152.02 80.8186 153.085 83.3907C154.151 85.9628 154.695 88.7206 154.687 91.5046V109.687C154.687 110.345 154.918 110.983 155.339 111.488L168.75 127.582V142.5Z" fill="#F0D770"/>
<path d="M51.0422 45.0312L50.2078 50.594L60.7548 52.1761L61.5892 46.6133L51.0422 45.0312Z" fill="#F0D770"/>
<path d="M47.8595 59.2873L45.6554 64.4625L55.1477 68.5053L57.3518 63.3301L47.8595 59.2873Z" fill="#F0D770"/>
<path d="M52.5146 73.8533L48.7354 78.0201L56.2941 84.8756L60.0733 80.7088L52.5146 73.8533Z" fill="#F0D770"/>
<path d="M39.8031 76.6289L35.4311 80.1681L41.4078 87.551L45.7798 84.0118L39.8031 76.6289Z" fill="#F0D770"/>
<path d="M53.6551 89.5945L49.3527 93.2177L54.9777 99.8974L58.989 96.5192L59.2629 96.3853L58.9904 96.5181L59.2801 96.2742L53.6551 89.5945Z" fill="#F0D770"/>
<path d="M67.7416 76.2543L65.1495 81.2465L74.2902 85.9926L76.8823 81.0005L67.7416 76.2543Z" fill="#F0D770"/>
<path d="M63.7118 62.0433L61.7968 67.3323L71.992 71.0237L73.907 65.7347L63.7118 62.0433Z" fill="#F0D770"/>
<path d="M73.807 47.8962L72.4428 53.3533L83.6928 56.1657L85.0571 50.7087L73.807 47.8962Z" fill="#F0D770"/>
<path d="M47.8125 33.7499H39.375V39.3749H47.8125V33.7499Z" fill="#F0D770"/>
<path d="M101.25 104.062H95.625V112.5H101.25V104.062Z" fill="#F0D770"/>
<path d="M112.5 104.062H106.875V109.687H112.5V104.062Z" fill="#F0D770"/>
</svg>
