<svg width="180" height="180" viewBox="0 0 180 180" fill="none" xmlns="http://www.w3.org/2000/svg">
<path d="M173.962 161.659L143.438 111.709V109.688H137.812V143.16C137.815 151.738 138.562 160.301 140.047 168.75H132.188C129.657 168.755 127.149 168.268 124.805 167.316C120.612 165.615 117.131 162.526 114.943 158.566C114.928 158.54 114.913 158.514 114.898 158.488C113.324 155.596 112.5 152.355 112.5 149.063V70.3125C112.5 69.9432 112.427 69.5774 112.286 69.2362C112.145 68.895 111.937 68.5849 111.676 68.3237L109.356 66.0034C107.937 64.5481 107.08 62.6374 106.936 60.6102C106.792 58.583 107.371 56.5704 108.57 54.9292L112.28 49.982C114.481 53.1343 117.312 55.7965 120.593 57.801C123.874 59.8055 127.534 61.1089 131.344 61.6289L126.673 77.9766C126.535 78.4589 126.528 78.9692 126.654 79.4548C126.78 79.9403 127.033 80.3834 127.388 80.7381C129.021 82.3717 130.492 84.1602 131.779 86.0783L128.604 85.9584C128.205 85.9433 127.807 86.0133 127.438 86.1639C127.068 86.3144 126.734 86.542 126.459 86.8315C126.184 87.1211 125.973 87.4659 125.842 87.843C125.71 88.2202 125.661 88.621 125.696 89.0188L126.291 95.6774C124.515 91.5028 123.19 87.151 122.336 82.6956L116.817 83.7826C119.758 98.7156 125.718 107.193 130.2 111.676L134.178 107.698C132.306 105.803 130.659 103.697 129.273 101.422C129.285 101.422 129.296 101.424 129.308 101.424L133.97 101.54L138.428 104.935C139.952 106.102 141.818 106.734 143.737 106.735C144.462 106.734 145.185 106.645 145.888 106.468C147.156 106.153 148.338 105.558 149.346 104.726C150.353 103.895 151.162 102.848 151.712 101.662L152.422 100.28L153.077 100.74C153.379 100.96 153.722 101.117 154.086 101.203C154.449 101.289 154.826 101.301 155.195 101.24C155.563 101.179 155.916 101.044 156.232 100.845C156.548 100.646 156.821 100.386 157.035 100.08C157.25 99.7742 157.401 99.4287 157.481 99.0637C157.56 98.6987 157.566 98.3215 157.498 97.9542C157.43 97.5869 157.289 97.2368 157.085 96.9243C156.88 96.6119 156.615 96.3434 156.305 96.1344L155.017 95.2313L162.65 80.376C163.783 78.1102 164.282 75.5805 164.096 73.0542C163.909 70.5279 163.044 68.099 161.59 66.0242L149.098 48.1862C147.384 45.7356 144.933 43.8959 142.102 42.9349L140.68 40.5647C138.929 37.6594 138.101 34.2913 138.305 30.9055C138.643 25.1617 138.438 21.2122 137.678 18.8332C134.886 10.0691 129.256 5.62501 120.948 5.62501H116.536C114.925 5.62312 113.329 5.93676 111.839 6.54821C110.281 7.16295 108.867 8.09185 107.684 9.27704C105.337 11.6873 104.023 14.9175 104.02 18.2813C104.02 18.3094 104.02 18.3375 104.02 18.3656L104.041 19.0635L101.545 24.0557C101.281 24.5837 101.19 25.1814 101.285 25.7641C101.379 26.3468 101.655 26.885 102.072 27.3024L104.052 29.2824L104.017 33.73C104.014 34.1011 104.085 34.4691 104.225 34.8127C104.365 35.1564 104.572 35.469 104.833 35.7324C105.095 35.9958 105.406 36.2048 105.748 36.3475C106.091 36.4901 106.459 36.5636 106.83 36.5636H112.5V42.1886H104.295L88.952 39.6313L71.557 9.81177C70.8119 8.5398 69.7476 7.48444 68.4693 6.75012C67.1911 6.01579 65.7433 5.62797 64.2691 5.62501H59.0625C56.8255 5.62752 54.6809 6.51728 53.0991 8.09907C51.5173 9.68086 50.6275 11.8255 50.625 14.0625V22.5H56.25V20.4771L62.6347 22.0736L76.1537 54.5193C76.3271 54.9356 76.5981 55.304 76.9438 55.5936C77.2895 55.8832 77.6998 56.0854 78.14 56.1832L95.015 59.933L96.235 54.4419L80.7848 51.0086L67.2848 18.6058C67.1162 18.2011 66.8553 17.8414 66.5229 17.5555C66.1905 17.2696 65.7959 17.0653 65.3706 16.959L56.25 14.6791V14.0625C56.2508 13.3168 56.5474 12.602 57.0747 12.0747C57.602 11.5474 58.3168 11.2508 59.0625 11.25H64.2691C64.7606 11.251 65.2432 11.3804 65.6693 11.6252C66.0954 11.8701 66.4501 12.222 66.6984 12.6461L84.7582 43.6047C84.9663 43.9614 85.2504 44.2679 85.5904 44.5025C85.9304 44.737 86.3178 44.8938 86.7252 44.9617C93.3754 46.0702 100.085 47.9327 106.875 47.8125L104.068 51.5556C102.06 54.2813 101.089 57.633 101.33 61.0097C101.57 64.3863 103.005 67.5669 105.378 69.981L106.875 71.4772V149.063C106.876 152.29 107.492 155.488 108.69 158.484L99.3867 162.471C98.0727 163.033 96.9929 164.031 96.33 165.297C95.6671 166.563 95.4617 168.019 95.7487 169.419C96.0356 170.819 96.7972 172.077 97.9047 172.98C99.0122 173.883 100.398 174.376 101.827 174.375H123.75C124.122 174.375 124.49 174.302 124.833 174.159C125.175 174.016 125.487 173.806 125.748 173.541C127.849 174.095 130.014 174.376 132.188 174.375H143.438C143.854 174.375 144.265 174.283 144.641 174.105C145.017 173.927 145.349 173.667 145.613 173.346C145.876 173.024 146.066 172.647 146.166 172.244C146.267 171.84 146.277 171.419 146.196 171.011C144.659 163.313 143.761 155.502 143.512 147.656L153.36 159.693L149.129 162.514C147.974 163.285 147.097 164.408 146.629 165.716C146.161 167.024 146.126 168.448 146.529 169.778C146.932 171.108 147.752 172.272 148.868 173.1C149.984 173.928 151.336 174.375 152.726 174.375H160.312C160.921 174.375 161.513 174.178 162 173.813L173.25 165.375C173.81 164.955 174.193 164.342 174.325 163.655C174.456 162.967 174.327 162.256 173.962 161.659ZM136.275 64.8383L145.183 75.1409L140.681 85.3362C140.259 85.1986 139.81 85.1627 139.371 85.2315C138.933 85.3003 138.516 85.4718 138.157 85.732C137.81 85.1128 137.445 84.4988 137.063 83.8899C137.056 83.8786 137.049 83.8677 137.042 83.8568C135.716 81.7626 134.203 79.7922 132.523 77.9695L136.275 64.8383ZM146.678 99.1452C146.658 99.1839 146.639 99.2226 146.621 99.2619C146.424 99.6931 146.133 100.074 145.768 100.378C145.404 100.681 144.976 100.898 144.516 101.013C144.056 101.129 143.576 101.139 143.112 101.043C142.647 100.948 142.21 100.749 141.833 100.462L136.652 96.5138C136.182 96.1552 135.61 95.9543 135.018 95.9397L131.954 95.8637L131.582 91.7005L136.151 91.8735L139.896 93.7459C140.35 93.9753 140.859 94.0758 141.367 94.0366C141.875 93.9975 142.362 93.8201 142.776 93.5237L147.768 97.0228L146.678 99.1452ZM144.492 51.4118L156.979 69.2494C157.85 70.4896 158.369 71.9415 158.484 73.4523C158.598 74.963 158.303 76.4767 157.63 77.8338L150.363 91.973L145.427 88.5136L151.048 75.7835C151.264 75.2963 151.336 74.758 151.257 74.2312C151.178 73.7044 150.952 73.2108 150.603 72.8079L137.128 57.2231L137.124 57.2259C136.861 56.9203 136.535 56.6749 136.169 56.5065C135.802 56.3381 135.403 56.2506 135 56.25C131.663 56.2396 128.371 55.4753 125.37 54.0143C122.37 52.5532 119.738 50.4332 117.671 47.8125H137.58C138.257 47.8116 138.932 47.8933 139.589 48.0558C141.577 48.5413 143.32 49.7343 144.492 51.4118ZM120.948 11.25C126.843 11.25 130.244 14.0274 132.321 20.5429C132.564 21.3065 133.089 23.8124 132.692 30.5733C132.449 34.5958 133.299 38.6091 135.153 42.1875H129.375V35.9543C129.375 30.9217 126.57 27.7942 123.596 24.0824C120.534 20.2609 118.267 15.8326 116.583 11.2504L120.948 11.25ZM115.312 30.9375H109.666L109.688 28.1461C109.69 27.7732 109.619 27.4035 109.478 27.0584C109.336 26.7134 109.127 26.3999 108.864 26.1362L107.485 24.757C107.52 24.7904 109.648 19.9705 109.696 19.2909C109.85 17.099 109.868 15.2993 111.427 13.52C112.875 17.4619 114.778 21.2209 117.098 24.7205C119.547 28.362 123.75 31.1337 123.75 35.9543V42.1875H118.125V33.75C118.125 33.0041 117.829 32.2887 117.301 31.7613C116.774 31.2338 116.058 30.9375 115.312 30.9375ZM101.423 168.588C101.368 168.534 101.325 168.469 101.295 168.398C101.265 168.327 101.25 168.251 101.25 168.173C101.249 168.061 101.282 167.95 101.344 167.856C101.406 167.762 101.495 167.688 101.598 167.644L111.369 163.456C112.746 165.445 114.4 167.228 116.28 168.75H101.827C101.676 168.751 101.531 168.693 101.423 168.588ZM159.375 168.75H152.726C152.544 168.749 152.366 168.69 152.22 168.581C152.074 168.472 151.967 168.319 151.914 168.145C151.861 167.97 151.866 167.784 151.927 167.612C151.988 167.44 152.103 167.293 152.254 167.191L159.06 162.653C159.387 162.435 159.664 162.151 159.874 161.82C160.085 161.488 160.223 161.117 160.281 160.729C160.339 160.34 160.316 159.944 160.211 159.566C160.107 159.188 159.925 158.835 159.677 158.531L143.438 138.683V122.496L167.829 162.409L159.375 168.75Z" fill="#F0D770"/>
<path d="M120.938 70.3104L118.125 70.3125H115.312C115.364 73.1143 115.585 75.9104 115.975 78.6853L121.551 77.9414C121.197 75.412 120.992 72.8639 120.938 70.3104Z" fill="#F0D770"/>
<path d="M124.651 118.26C122.264 111.791 120.867 106.247 120.854 106.192L115.397 107.557C115.634 108.506 121.313 130.915 130.198 139.801L134.175 135.824C131.019 132.667 127.725 126.593 124.651 118.26Z" fill="#F0D770"/>
<path d="M115.514 138.857C121.287 153.29 129.837 161.94 130.199 162.301L134.176 158.324C134.096 158.244 126.085 150.14 120.736 136.768L115.514 138.857Z" fill="#F0D770"/>
<path d="M101.25 104.062C101.25 103.682 101.173 103.305 101.023 102.955L87.4877 71.3711C89.5 71.1653 91.4965 70.8272 93.4643 70.3589L92.16 64.8872C89.8576 65.4359 87.5113 65.7808 85.1484 65.918L84.1468 63.5804C83.9301 63.0743 83.5696 62.643 83.11 62.3399C82.6504 62.0367 82.112 61.8751 81.5614 61.8751C81.0109 61.8751 80.4725 62.0367 80.0129 62.3399C79.5533 62.643 79.1928 63.0743 78.9761 63.5804L78.0564 65.7271C76.012 65.4107 73.5564 64.6481 70.99 63.8518C67.7419 62.8443 64.4048 61.8089 61.2281 61.4531C60.7727 60.3632 60.0946 59.3805 59.2374 58.5678C58.3802 57.7551 57.3626 57.1304 56.25 56.7338V50.625H50.625V56.7338C49.5159 57.1288 48.5013 57.7504 47.6455 58.5589C46.7898 59.3675 46.1118 60.3454 45.6546 61.4303C41.8018 61.785 38.0201 62.9849 34.6205 64.067C32.7144 64.7208 30.772 65.2637 28.8032 65.693L27.8979 63.5801C27.6812 63.074 27.3206 62.6426 26.8611 62.3395C26.4015 62.0364 25.863 61.8748 25.3125 61.8748C24.762 61.8748 24.2235 62.0364 23.7639 62.3395C23.3044 62.6426 22.9438 63.074 22.7271 63.5801L21.7266 65.918C19.3639 65.7811 17.0179 65.4364 14.7157 64.8879L13.4114 70.3596C17.2751 71.2808 21.2423 71.6955 25.213 71.5932L37.922 101.25H12.703L23.0766 77.0453L17.9061 74.8304L5.85246 102.955C5.70208 103.305 5.62468 103.682 5.625 104.062C5.62919 107.791 7.11211 111.365 9.74844 114.002C12.3848 116.638 15.9592 118.121 19.6875 118.125H30.9375C34.6658 118.121 38.2402 116.638 40.8766 114.002C43.5129 111.365 44.9958 107.791 45 104.062C45.0004 103.682 44.9231 103.305 44.7729 102.955L31.062 70.9625C32.7371 70.5688 34.5041 70.0073 36.3263 69.4276C39.1834 68.5185 42.338 67.5172 45.3614 67.1235C45.8836 68.855 46.9484 70.373 48.3987 71.4535C49.849 72.534 51.6082 73.1199 53.4168 73.1248C55.2254 73.1297 56.9877 72.5533 58.4438 71.4806C59.9 70.408 60.9729 68.8958 61.5045 67.1671C63.939 67.5538 66.6654 68.3975 69.3257 69.2241C71.5683 69.9202 73.7367 70.5913 75.7888 71.0241L62.1042 102.955C61.9532 103.305 61.8752 103.682 61.875 104.062C61.8792 107.791 63.3621 111.365 65.9984 114.002C68.6348 116.638 72.2092 118.121 75.9375 118.125H87.1875C90.9158 118.121 94.4902 116.638 97.1266 114.002C99.7629 111.365 101.246 107.791 101.25 104.062ZM30.9375 112.5H19.6875C17.9431 112.498 16.242 111.956 14.8177 110.949C13.3933 109.942 12.3155 108.519 11.732 106.875H38.893C38.3095 108.519 37.2317 109.942 35.8073 110.949C34.383 111.956 32.6819 112.498 30.9375 112.5ZM53.4375 67.5C52.8812 67.5 52.3375 67.3351 51.875 67.026C51.4124 66.717 51.052 66.2777 50.8391 65.7638C50.6262 65.2499 50.5705 64.6844 50.679 64.1388C50.7876 63.5932 51.0554 63.0921 51.4488 62.6988C51.8421 62.3054 52.3432 62.0376 52.8888 61.929C53.4344 61.8205 53.9999 61.8762 54.5138 62.0891C55.0277 62.302 55.467 62.6624 55.776 63.125C56.0851 63.5875 56.25 64.1312 56.25 64.6875C56.2492 65.4332 55.9526 66.148 55.4253 66.6753C54.898 67.2026 54.1832 67.4992 53.4375 67.5ZM94.172 101.25H68.953L81.5625 71.8274L94.172 101.25ZM87.1875 112.5H75.9375C74.1931 112.498 72.492 111.956 71.0677 110.949C69.6433 109.942 68.5655 108.519 67.982 106.875H95.143C94.5595 108.519 93.4816 109.942 92.0573 110.949C90.633 111.956 88.9319 112.498 87.1875 112.5Z" fill="#F0D770"/>
<path d="M56.25 39.375H50.625V45H56.25V39.375Z" fill="#F0D770"/>
<path d="M56.25 28.125H50.625V33.75H56.25V28.125Z" fill="#F0D770"/>
</svg>
