<svg width="180" height="180" viewBox="0 0 180 180" fill="none" xmlns="http://www.w3.org/2000/svg">
<path d="M12.6562 42.1874C14.0469 42.1874 15.4063 41.775 16.5626 41.0024C17.7189 40.2298 18.6201 39.1317 19.1523 37.8469C19.6845 36.5621 19.8237 35.1483 19.5524 33.7844C19.2811 32.4205 18.6114 31.1676 17.6281 30.1843C16.6448 29.2009 15.3919 28.5313 14.028 28.26C12.664 27.9887 11.2503 28.1279 9.96551 28.6601C8.68071 29.1923 7.58258 30.0935 6.80998 31.2498C6.03738 32.4061 5.625 33.7655 5.625 35.1561C5.62714 37.0203 6.36862 38.8075 7.68677 40.1256C9.00492 41.4438 10.7921 42.1852 12.6562 42.1874ZM12.6562 33.7499C12.9344 33.7499 13.2063 33.8324 13.4375 33.9869C13.6688 34.1414 13.849 34.361 13.9555 34.618C14.0619 34.8749 14.0897 35.1577 14.0355 35.4305C13.9812 35.7033 13.8473 35.9538 13.6506 36.1505C13.454 36.3472 13.2034 36.4811 12.9306 36.5354C12.6578 36.5896 12.3751 36.5618 12.1181 36.4553C11.8611 36.3489 11.6415 36.1687 11.487 35.9374C11.3325 35.7061 11.25 35.4343 11.25 35.1561C11.25 34.7832 11.3982 34.4255 11.6619 34.1618C11.9256 33.898 12.2833 33.7499 12.6562 33.7499Z" fill="#F0D770"/>
<path d="M33.75 11.2499H28.125V16.8749H33.75V11.2499Z" fill="#F0D770"/>
<path d="M22.5 16.8749H16.875V22.4999H22.5V16.8749Z" fill="#F0D770"/>
<path d="M104.062 108.281C104.062 106.89 103.65 105.531 102.878 104.375C102.105 103.218 101.007 102.317 99.722 101.785C98.4372 101.253 97.0235 101.114 95.6595 101.385C94.2956 101.656 93.0427 102.326 92.0594 103.309C91.0761 104.293 90.4064 105.545 90.1351 106.909C89.8638 108.273 90.003 109.687 90.5352 110.972C91.0674 112.257 91.9686 113.355 93.1249 114.127C94.2812 114.9 95.6406 115.312 97.0313 115.312C98.8954 115.31 100.683 114.569 102.001 113.251C103.319 111.932 104.06 110.145 104.062 108.281ZM95.625 108.281C95.625 108.003 95.7075 107.731 95.862 107.5C96.0165 107.269 96.2361 107.088 96.4931 106.982C96.7501 106.875 97.0328 106.848 97.3056 106.902C97.5784 106.956 97.829 107.09 98.0256 107.287C98.2223 107.483 98.3562 107.734 98.4105 108.007C98.4647 108.28 98.4369 108.562 98.3305 108.819C98.224 109.076 98.0438 109.296 97.8125 109.45C97.5813 109.605 97.3094 109.687 97.0313 109.687C96.6583 109.687 96.3006 109.539 96.0369 109.275C95.7732 109.012 95.625 108.654 95.625 108.281Z" fill="#F0D770"/>
<path d="M81.5625 61.8749H75.9375V67.4999H81.5625V61.8749Z" fill="#F0D770"/>
<path d="M126.562 92.8124H120.938V98.4374H126.562V92.8124Z" fill="#F0D770"/>
<path d="M59.0625 81.5624H53.4375V87.1874H59.0625V81.5624Z" fill="#F0D770"/>
<path d="M144.844 160.312C143.453 160.312 142.094 160.725 140.937 161.497C139.781 162.27 138.88 163.368 138.348 164.653C137.816 165.938 137.676 167.351 137.948 168.715C138.219 170.079 138.889 171.332 139.872 172.315C140.855 173.299 142.108 173.968 143.472 174.24C144.836 174.511 146.25 174.372 147.534 173.84C148.819 173.307 149.917 172.406 150.69 171.25C151.463 170.094 151.875 168.734 151.875 167.344C151.873 165.479 151.131 163.692 149.813 162.374C148.495 161.056 146.708 160.315 144.844 160.312ZM144.844 168.75C144.566 168.75 144.294 168.667 144.062 168.513C143.831 168.358 143.651 168.139 143.545 167.882C143.438 167.625 143.41 167.342 143.465 167.069C143.519 166.796 143.653 166.546 143.849 166.349C144.046 166.153 144.297 166.019 144.569 165.964C144.842 165.91 145.125 165.938 145.382 166.044C145.639 166.151 145.858 166.331 146.013 166.562C146.168 166.794 146.25 167.065 146.25 167.344C146.25 167.717 146.102 168.074 145.838 168.338C145.574 168.602 145.217 168.75 144.844 168.75Z" fill="#F0D770"/>
<path d="M168.75 140.625H163.125V146.25H168.75V140.625Z" fill="#F0D770"/>
<path d="M163.125 151.875H157.5V157.5H163.125V151.875Z" fill="#F0D770"/>
<path d="M16.0154 78.1997C17.6512 92.1047 22.1962 103.336 30.3184 113.548L34.7206 110.046C30.0378 104.159 23.5835 94.3853 21.6017 77.5423L16.0154 78.1997Z" fill="#F0D770"/>
<path d="M67.2655 154.395C67.2655 156.063 67.7604 157.695 68.6875 159.082C69.6146 160.47 70.9324 161.551 72.4741 162.19C74.0159 162.828 75.7124 162.995 77.3491 162.67C78.9858 162.344 80.4892 161.541 81.6692 160.361C82.8492 159.181 83.6528 157.677 83.9784 156.041C84.3039 154.404 84.1369 152.707 83.4982 151.166C82.8596 149.624 81.7782 148.306 80.3906 147.379C79.0031 146.452 77.3718 145.957 75.703 145.957C73.466 145.96 71.3214 146.849 69.7397 148.431C68.1579 150.013 67.2681 152.158 67.2655 154.395ZM75.703 151.582C76.2593 151.582 76.803 151.747 77.2655 152.056C77.7281 152.365 78.0885 152.804 78.3014 153.318C78.5143 153.832 78.57 154.398 78.4615 154.943C78.3529 155.489 78.0851 155.99 77.6917 156.383C77.2984 156.777 76.7973 157.044 76.2517 157.153C75.7061 157.262 75.1406 157.206 74.6267 156.993C74.1128 156.78 73.6735 156.42 73.3645 155.957C73.0555 155.495 72.8905 154.951 72.8905 154.395C72.8913 153.649 73.1879 152.934 73.7152 152.407C74.2425 151.879 74.9573 151.583 75.703 151.582Z" fill="#F0D770"/>
<path d="M28.0346 120.776C27.9252 121.21 27.9207 121.664 28.0217 122.099C28.1226 122.535 28.326 122.941 28.6151 123.282C36.2482 132.298 50.3905 136.955 50.9888 137.148L52.7238 131.797C52.6095 131.76 42.6955 128.486 35.7785 122.516L45.4995 118.704C47.7812 121.603 52.4605 127.12 56.347 128.938L58.7295 123.842C55.8991 122.519 51.088 116.889 48.7206 113.652C48.354 113.15 47.8317 112.784 47.235 112.61C46.6384 112.436 46.001 112.465 45.4226 112.692L29.7341 118.845C29.3175 119.008 28.9461 119.269 28.6505 119.605C28.3549 119.941 28.1438 120.342 28.0346 120.776Z" fill="#F0D770"/>
<path d="M64.0054 126.646C63.6471 126.736 63.3099 126.895 63.0132 127.115C62.7164 127.335 62.4658 127.611 62.2758 127.928L53.8383 141.99C53.6152 142.362 53.4811 142.78 53.4464 143.213C53.4118 143.645 53.4776 144.079 53.6386 144.482L59.2636 158.544L64.4864 156.455L59.3789 143.688L66.4994 131.821L76.6192 129.289L75.2551 123.832L64.0054 126.646Z" fill="#F0D770"/>
<path d="M99.6609 124.031C99.6019 124.002 99.54 123.983 99.4816 123.952C99.3698 123.907 89.2561 119.858 82.8833 116.968C83.6321 110.106 83.707 98.0935 78.5942 83.4485C78.4032 82.8966 78.0454 82.4177 77.5704 82.078C77.0953 81.7382 76.5264 81.5545 75.9424 81.5522H75.9227C75.3374 81.554 74.7673 81.7394 74.2929 82.0823C73.8185 82.4252 73.4636 82.9084 73.2783 83.4636C73.177 83.7512 70.6894 90.5233 61.1944 92.8971C60.8027 92.9949 60.4368 93.1759 60.1213 93.4277C59.8058 93.6795 59.5483 93.9963 59.3661 94.3565C59.1839 94.7167 59.0814 95.1119 59.0656 95.5152C59.0497 95.9185 59.1208 96.3206 59.2741 96.694L63.1181 106.073C57.8979 102.757 52.9621 99.0131 48.3616 94.8799C48.6077 89.2384 48.3848 81.6323 46.2719 75.0771C46.1193 74.6034 45.8437 74.1787 45.4733 73.8464C45.1028 73.5141 44.6509 73.286 44.1635 73.1854C43.6761 73.0848 43.1708 73.1153 42.699 73.2739C42.2273 73.4324 41.8061 73.7133 41.4784 74.0878L36.0566 80.2855C33.0611 75.4273 30.8917 70.1061 29.6367 64.5383C45.0998 65.5367 63.8455 79.363 64.0638 79.4846C66.5328 80.8592 68.4664 79.2772 68.5487 77.4048C69.0855 65.1753 66.626 56.1764 60.5405 50.6203C57.5297 47.9187 53.8333 46.0981 49.8565 45.3581C59.5895 33.9844 53.3507 18.9962 53.3507 18.9962C53.2329 18.5324 52.9989 18.1063 52.6707 17.7581C52.3425 17.4099 51.931 17.151 51.4751 17.006C50.2798 16.627 49.6635 16.9603 47.6226 18.067C31.3242 26.906 19.3982 40.7695 12.2428 57.8586L17.4315 60.0313C18.9175 56.4851 20.6481 53.0463 22.6107 49.74C22.5136 53.9008 22.7935 58.0619 23.4471 62.1723C25.7259 76.1821 33.1667 88.6323 43.5565 98.0981C53.3197 106.993 67.8494 116.367 80.5848 122.075C81.9626 122.692 92.1181 127.997 92.8149 127.318C92.1476 128.002 91.6253 128.815 91.2791 129.706C90.933 130.597 90.7702 131.549 90.8005 132.504C90.8416 135.071 92.1182 137.486 94.3945 139.307C95.2692 140.007 96.5282 141.435 98.0469 143.512L101.59 167.994C100.283 168.112 98.6667 168.251 97.0193 168.379L94.0781 145.078L88.4971 145.781L91.3904 168.721C90.8571 168.739 90.3906 168.749 89.9986 168.749C69.1131 168.749 49.0832 160.452 34.3151 145.684C19.5469 130.915 11.2502 110.885 11.25 89.9999C11.2752 82.3056 12.464 74.6593 14.7762 67.3206L9.40534 65.6485C6.92455 73.5286 5.65002 81.7386 5.62499 89.9999C5.56266 109.079 12.0246 127.606 23.9389 142.507C18.7485 140.628 14.5635 138.785 14.4974 138.756C13.9436 138.511 13.3254 138.451 12.7349 138.585C12.1444 138.72 11.6131 139.041 11.2199 139.502C10.8267 139.963 10.5927 140.538 10.5527 141.142C10.5128 141.746 10.6689 142.347 10.9979 142.856C13.0141 145.972 16.0024 151.172 16.335 152.975C16.8673 155.842 16.875 160.268 16.875 160.312C16.875 161.058 17.1713 161.774 17.6988 162.301C18.2262 162.829 18.9416 163.125 19.6875 163.125H36.2109V157.5H22.4265C22.3589 155.64 22.1721 153.787 21.8672 151.952C21.6274 150.651 20.8543 148.851 19.928 147.026C23.7162 148.481 27.5781 149.737 31.4979 150.788C47.2002 165.942 68.1778 174.4 90 174.375C96.5626 174.375 105.021 173.32 105.077 173.313C105.455 173.275 105.821 173.161 106.153 172.978C106.486 172.795 106.778 172.546 107.012 172.248C107.246 171.949 107.417 171.605 107.514 171.239C107.612 170.872 107.635 170.489 107.581 170.114L105.481 155.601C107.545 159.442 109.711 163.867 111.853 168.813C112.162 169.527 112.429 169.907 113.486 170.343C114.17 170.624 115.318 170.403 115.72 170.196L121.872 167.032C122.422 166.749 122.863 166.293 123.127 165.735C123.392 165.177 123.465 164.547 123.336 163.943C123.059 162.646 116.352 132.094 99.6609 124.031ZM39.1781 29.9308C41.073 28.3112 45.6926 25.5855 48.7789 23.8548C49.0517 24.9928 49.2978 26.1435 49.4873 27.3001L40.4575 34.3454L43.9175 38.7807L49.6033 34.3444C48.9094 38.0308 46.6404 41.8604 40.7401 45.4017C40.1811 45.7374 39.7561 46.2569 39.5378 46.8713C39.3195 47.4858 39.3215 48.157 39.5434 48.7701C39.7654 49.3832 40.1934 49.9002 40.7544 50.2326C41.3154 50.5649 41.9745 50.6921 42.6189 50.5922C42.7008 50.5799 50.8472 49.3877 56.7482 54.7758C57.6661 55.62 58.4804 56.5704 59.1739 57.6069L50.6693 54.8647L48.941 60.2155L62.0835 64.455C62.6621 66.919 62.9803 69.437 63.0327 71.9675C55.9462 67.3881 41.5276 59.1882 28.6604 58.8662C27.9925 53.2785 28.086 47.2555 28.9417 40.5649C32.0076 36.7025 35.4353 33.1417 39.1781 29.9308ZM75.0494 91.0194C77.671 100.756 77.8728 108.846 77.477 114.324C75.2973 113.199 73.1942 112.064 71.1882 110.934L65.6402 97.3985C69.2557 96.0826 72.4885 93.8908 75.0494 91.0194ZM39.3339 85.078L42.1144 81.8995C42.4957 84.3332 42.7176 86.7891 42.7788 89.2517C41.5491 87.8769 40.4007 86.4857 39.3339 85.078ZM115.799 163.83C109.009 148.8 101.777 138.007 97.9091 134.912C96.9564 134.15 96.4431 133.289 96.4251 132.422C96.4009 132.045 96.5065 131.671 96.7243 131.362L98.6797 129.895C109.709 136.632 115.646 156.541 117.329 163.043L115.799 163.83Z" fill="#F0D770"/>
<path d="M45 104.062H39.375V109.687H45V104.062Z" fill="#F0D770"/>
<path d="M145.279 69.9538C149.962 75.8407 156.416 85.6145 158.398 102.458L163.985 101.8C162.349 87.8951 157.804 76.6634 149.682 66.4522L145.279 69.9538Z" fill="#F0D770"/>
<path d="M104.297 17.1677C102.628 17.1677 100.997 17.6626 99.6094 18.5897C98.2218 19.5168 97.1404 20.8346 96.5018 22.3763C95.8632 23.9181 95.6961 25.6146 96.0216 27.2513C96.3472 28.888 97.1508 30.3914 98.3308 31.5714C99.5108 32.7514 101.014 33.555 102.651 33.8806C104.288 34.2062 105.984 34.0391 107.526 33.4005C109.068 32.7618 110.385 31.6804 111.313 30.2928C112.24 28.9053 112.734 27.274 112.734 25.6052C112.732 23.3682 111.842 21.2236 110.26 19.6418C108.679 18.06 106.534 17.1702 104.297 17.1677ZM104.297 28.4177C103.741 28.4177 103.197 28.2528 102.734 27.9437C102.272 27.6347 101.911 27.1954 101.699 26.6815C101.486 26.1676 101.43 25.6021 101.539 25.0565C101.647 24.511 101.915 24.0098 102.308 23.6165C102.702 23.2232 103.203 22.9553 103.748 22.8468C104.294 22.7382 104.859 22.7939 105.373 23.0068C105.887 23.2197 106.326 23.5802 106.636 24.0427C106.945 24.5052 107.109 25.049 107.109 25.6052C107.109 26.3509 106.812 27.0658 106.285 27.593C105.758 28.1203 105.043 28.4169 104.297 28.4177Z" fill="#F0D770"/>
<path d="M123.652 51.0601L121.27 56.1557C124.1 57.4793 128.911 63.1092 131.279 66.3464C131.645 66.8482 132.168 67.2145 132.764 67.388C133.361 67.5616 133.998 67.5327 134.577 67.3058L150.265 61.1535C150.682 60.9902 151.053 60.7299 151.349 60.3942C151.644 60.0586 151.856 59.6572 151.965 59.2235C152.075 58.7898 152.079 58.3362 151.978 57.9004C151.877 57.4646 151.674 57.0592 151.385 56.7178C143.752 47.7013 129.609 43.0452 129.011 42.8518L127.276 48.2023C127.39 48.2395 137.304 51.514 144.221 57.4818L134.5 61.2941C132.218 58.3944 127.539 52.8777 123.652 51.0601Z" fill="#F0D770"/>
<path d="M103.38 50.7089L104.745 56.1659L115.995 53.3534C116.353 53.2638 116.69 53.1045 116.987 52.8847C117.284 52.6648 117.534 52.3886 117.724 52.0719L126.162 38.0094C126.385 37.6376 126.519 37.2193 126.554 36.787C126.588 36.3548 126.522 35.9205 126.361 35.5179L120.736 21.4554L115.514 23.5444L120.621 36.3117L113.501 48.1791L103.38 50.7089Z" fill="#F0D770"/>
<path d="M140.625 70.3124H135V75.9374H140.625V70.3124Z" fill="#F0D770"/>
<path d="M166.373 125.274C171.608 114.017 174.375 101.82 174.375 89.9999C174.437 70.9209 167.975 52.3939 156.061 37.4923C161.252 39.3714 165.437 41.2146 165.503 41.2438C166.056 41.4889 166.675 41.5486 167.265 41.4142C167.856 41.2797 168.387 40.9582 168.78 40.4976C169.173 40.0369 169.407 39.4616 169.447 38.8573C169.487 38.253 169.331 37.6519 169.002 37.1435C166.986 34.029 163.998 28.8315 163.665 27.0245C163.133 24.1579 163.125 19.7313 163.125 19.6874C163.125 18.9415 162.829 18.2261 162.301 17.6986C161.774 17.1712 161.058 16.8749 160.312 16.8749H132.101C120.472 10.1817 107.414 6.35728 94.011 5.71875L93.7476 11.3374C93.7993 10.2578 113.002 14.6562 114.673 15.2067C126.098 19.0053 136.511 25.3499 145.125 33.7615C152.631 41.0734 158.591 49.8199 162.65 59.4811C166.708 69.1423 168.783 79.5209 168.75 89.9999C168.75 103.85 164.629 117.963 157.39 130.2C157.483 126.059 157.203 121.918 156.553 117.827C154.504 105.229 148.099 93.8101 139.282 84.6983C138.358 83.7439 137.411 82.8117 136.443 81.9016C130.007 75.8439 122.156 70.2027 112.438 64.6564C104.304 60.0134 95.8391 56.2334 87.1843 52.6833C87.8516 51.9987 88.374 51.1865 88.7201 50.2953C89.0663 49.4041 89.2291 48.4522 89.1988 47.4967C89.1576 44.9303 87.8811 42.5154 85.6048 40.6943C84.7301 39.9943 83.4711 38.5663 81.9524 36.4889L78.4111 12.0173L82.9793 11.6014L85.9219 34.922L91.5029 34.2189L88.2214 8.20324C88.1302 7.47996 87.7617 6.82036 87.1936 6.36349C86.6255 5.90663 85.9022 5.6882 85.1762 5.75426L74.9492 6.6852C74.569 6.71983 74.1997 6.83153 73.8641 7.0135C73.5284 7.19546 73.2332 7.44388 72.9967 7.7436C72.7601 8.04333 72.587 8.38809 72.488 8.75687C72.389 9.12565 72.3662 9.51073 72.4208 9.88863L74.5193 24.3983C72.457 20.5575 70.2889 16.1324 68.1472 11.1866C67.9942 10.8333 67.7702 10.5152 67.4892 10.252C67.2082 9.98874 66.8761 9.78602 66.5136 9.65636C66.151 9.5267 65.7657 9.47287 65.3815 9.49819C64.9973 9.5235 64.6224 9.62744 64.28 9.80355L58.1277 12.9676C57.5782 13.2502 57.1371 13.7059 56.8725 14.2643C56.6079 14.8226 56.5346 15.4526 56.6638 16.0568C56.9412 17.3534 63.6476 47.9055 80.339 55.9697C80.3981 55.9985 90.7453 60.1424 97.1167 63.0329C96.3678 69.8951 96.293 81.9073 101.406 96.5523C101.597 97.1042 101.955 97.5831 102.43 97.9228C102.905 98.2626 103.474 98.4463 104.058 98.4486H104.077C104.663 98.4468 105.233 98.2614 105.707 97.9185C106.181 97.5756 106.536 97.0924 106.722 96.5372C106.823 96.2496 109.311 89.4775 118.806 87.1037C119.197 87.0059 119.563 86.8249 119.878 86.5732C120.193 86.3215 120.451 86.005 120.633 85.645C120.815 85.285 120.918 84.89 120.934 84.4869C120.95 84.0838 120.879 83.6819 120.726 83.3086L117.512 75.4659L112.307 77.5996L114.358 82.6041C110.744 83.9194 107.511 86.1101 104.951 88.9804C102.329 79.2442 102.127 71.1533 102.525 65.676C112.889 71.0303 122.996 77.2315 131.641 85.1209C131.395 90.7624 131.618 98.3681 133.73 104.923C133.892 105.39 134.172 105.806 134.543 106.132C134.913 106.458 135.363 106.682 135.846 106.781C136.329 106.881 136.831 106.854 137.3 106.701C137.77 106.549 138.192 106.277 138.524 105.913L143.946 99.7153C147.528 105.527 149.926 111.989 151.002 118.73C152.02 124.984 152.038 131.762 151.062 139.413C147.999 143.285 144.571 146.853 140.823 150.068C138.928 151.687 134.309 154.413 131.222 156.144C130.95 155.006 130.704 153.855 130.514 152.698L139.544 145.653L136.084 141.218L130.398 145.654C131.092 141.967 133.361 138.138 139.261 134.597C139.82 134.261 140.245 133.741 140.464 133.127C140.682 132.513 140.68 131.841 140.458 131.228C140.236 130.615 139.808 130.098 139.247 129.766C138.686 129.433 138.027 129.306 137.383 129.406C137.301 129.418 129.154 130.611 123.253 125.223C122.335 124.378 121.521 123.428 120.827 122.391L129.332 125.134L131.059 119.781L117.917 115.541C117.338 113.076 117.02 110.558 116.968 108.026C122.848 111.823 133.786 118.119 144.673 120.337L145.796 114.825C131.382 111.889 116.089 100.624 115.937 100.512C115.531 100.21 115.05 100.023 114.547 99.971C114.043 99.9192 113.535 100.004 113.076 100.217C112.616 100.43 112.223 100.763 111.937 101.181C111.652 101.599 111.484 102.086 111.452 102.591C110.68 114.808 113.375 123.82 119.46 129.376C122.471 132.078 126.168 133.898 130.145 134.638C125.723 139.272 123.938 144.939 124.707 151.794C125.057 154.919 125.878 157.961 126.65 161.001C126.814 161.605 127.169 162.14 127.662 162.526C128.155 162.912 128.759 163.127 129.385 163.141C130.144 163.141 130.874 162.745 132.38 161.929C137.908 158.932 143.169 155.762 147.774 151.362C152.235 147.086 156.217 142.339 159.652 137.203C162.198 133.407 164.445 129.419 166.373 125.274ZM140.616 22.4999H157.573C157.641 24.3593 157.828 26.2124 158.133 28.0479C158.373 29.3487 159.146 31.149 160.072 32.9736C156.284 31.5183 152.422 30.2627 148.502 29.2119C146.013 26.8156 143.379 24.574 140.616 22.4999ZM62.6702 16.9564L64.2009 16.1693C70.9906 31.1986 78.1186 42.1255 82.0905 45.0867C84.961 47.2263 81.3199 50.1039 81.3199 50.1039C70.291 43.3669 64.3538 23.4579 62.6702 16.9564ZM137.886 98.0995C137.504 95.6659 137.282 93.2099 137.221 90.7473C138.451 92.1226 139.599 93.5139 140.666 94.9211L137.886 98.0995Z" fill="#F0D770"/>
</svg>
