<svg width="180" height="180" viewBox="0 0 180 180" fill="none" xmlns="http://www.w3.org/2000/svg">
<path d="M157.5 98.4375H143.438V104.062H157.5C158.246 104.063 158.961 104.36 159.488 104.887C160.015 105.414 160.312 106.129 160.313 106.875V128.134C160.313 128.724 160.127 129.3 159.782 129.779C159.437 130.258 158.95 130.616 158.389 130.803L154.688 132.037V118.125C154.685 115.888 153.795 113.743 152.213 112.162C150.632 110.58 148.487 109.69 146.25 109.688H137.813V78.0469L140.625 75.9375C142.368 74.6243 143.783 72.9251 144.759 70.9732C145.735 69.0213 146.245 66.8698 146.25 64.6875V61.1184C146.802 60.4658 147.281 59.7555 147.681 58.9999C147.946 59.0403 148.215 59.0618 148.483 59.0643C149.591 59.0639 150.672 58.7344 151.592 58.1175L157.807 53.974C158.579 53.4611 159.211 52.7653 159.648 51.9487C160.085 51.132 160.314 50.2199 160.313 49.2936V46.6791C160.313 45.7528 160.085 44.8408 159.648 44.0241C159.211 43.2075 158.579 42.5117 157.808 41.9987L151.461 37.7673C150.376 37.0463 149.076 36.7223 147.781 36.8504L131.056 38.5228L130.699 36.5625H135C135.479 36.5625 135.951 36.4399 136.37 36.2065C136.788 35.973 137.14 35.6364 137.392 35.2285C137.644 34.8207 137.788 34.3552 137.81 33.8763C137.831 33.3974 137.73 32.9209 137.515 32.4921L137.237 31.9349C135.77 28.9915 135.004 25.7483 135 22.4596V19.6875C134.996 15.9592 133.513 12.3848 130.877 9.74844C128.24 7.11211 124.666 5.62919 120.938 5.625H112.5C110.361 5.62786 108.303 6.44193 106.741 7.90291C105.179 9.36389 104.229 11.363 104.084 13.4968L100.023 24.325C99.8635 24.7505 99.8094 25.2083 99.8654 25.6592C99.9215 26.1102 100.086 26.5409 100.345 26.9144C100.604 27.2879 100.949 27.5931 101.352 27.804C101.754 28.0148 102.202 28.125 102.656 28.125H104.063V33.75H109.688V28.125H112.5C112.869 28.125 113.235 28.0523 113.576 27.9109C113.918 27.7696 114.228 27.5624 114.489 27.3013L115.313 26.4772V33.75H120.938V30.3223C120.938 30.3223 122.959 33.9258 124.697 34.998L125.44 39.0832L121.468 39.4805L116.571 37.0318C116.18 36.8364 115.75 36.7347 115.313 36.7348H106.875C106.129 36.7348 105.414 37.0311 104.886 37.5585C104.359 38.086 104.063 38.8013 104.063 39.5473V40.525C103.828 40.4486 103.592 40.3775 103.353 40.3119L76.6079 13.5679L72.6304 17.5454L95.1367 40.0521C93.0736 40.4643 91.0842 41.1841 89.235 42.1875H59.7266L56.25 40.4494V33.75C56.247 32.4163 56.5453 31.0991 57.1226 29.8968C57.7 28.6945 58.5414 27.6382 59.5842 26.8066L63.803 23.4373C65.8392 21.8151 67.4823 19.7537 68.6096 17.407C69.7368 15.0604 70.3189 12.4893 70.3125 9.88594V8.4375C70.3125 7.69158 70.0162 6.97621 69.4887 6.44876C68.9613 5.92132 68.2459 5.625 67.5 5.625H64.6875C63.9416 5.625 63.2262 5.92132 62.6988 6.44876C62.1713 6.97621 61.875 7.69158 61.875 8.4375C61.8721 10.5044 61.3243 12.5341 60.2869 14.3218C59.2495 16.1095 57.7591 17.5921 55.9659 18.6202L48.484 22.8934C46.5705 23.9873 44.9803 25.5676 43.8745 27.4742C42.7687 29.3808 42.1867 31.5459 42.1875 33.75V42.1875H36.5625C36.5625 41.7418 36.4567 41.3025 36.2536 40.9058C36.0505 40.5091 35.7561 40.1663 35.3946 39.9057C35.033 39.6451 34.6147 39.4742 34.1742 39.407C33.7336 39.3397 33.2833 39.3782 32.8606 39.5191L24.4231 42.3316C23.8629 42.5182 23.3757 42.8763 23.0304 43.3553C22.6852 43.8342 22.4994 44.4096 22.4994 45C22.4994 45.5904 22.6852 46.1658 23.0304 46.6447C23.3757 47.1237 23.8629 47.4818 24.4231 47.6684L32.8606 50.4809C33.2833 50.6218 33.7336 50.6602 34.1742 50.593C34.6147 50.5258 35.033 50.3549 35.3946 50.0943C35.7561 49.8337 36.0505 49.4909 36.2536 49.0942C36.4567 48.6975 36.5625 48.2582 36.5625 47.8125H42.1875V61.875C42.1903 64.0791 42.7743 66.2436 43.8805 68.15C44.9867 70.0564 46.576 71.6375 48.4882 72.7337L55.9628 77.0031C57.7583 78.0291 59.2507 79.5114 60.289 81.2999C61.3272 83.0884 61.8744 85.1195 61.875 87.1875C61.875 87.9334 62.1713 88.6488 62.6988 89.1762C63.2262 89.7037 63.9416 90 64.6875 90H67.5C68.2459 90 68.9613 89.7037 69.4887 89.1762C70.0162 88.6488 70.3125 87.9334 70.3125 87.1875V85.7391C70.3125 85.6547 70.3065 85.571 70.3055 85.487L94.6582 59.2604L95.625 60.2269V64.6875C95.6298 66.8698 96.1402 69.0213 97.1162 70.9732C98.0921 72.9251 99.5071 74.6243 101.25 75.9375L104.063 78.0469V88.2619L83.7109 98.4375H67.5C61.6099 98.4233 55.9519 100.733 51.7546 104.865C48.8326 107.736 46.7456 111.347 45.7165 115.312H45.6539C43.2374 115.323 40.8877 116.107 38.9488 117.55C37.0098 118.992 35.5832 121.017 34.8778 123.328L32.2829 131.974C31.4914 134.66 30.0078 137.09 27.981 139.021C25.9542 140.952 23.4553 142.317 20.7348 142.978L26.9132 121.355C27.8831 117.999 29.9149 115.048 32.7039 112.944C35.4928 110.841 38.8886 109.698 42.3819 109.688H45V104.062H42.3809C37.6663 104.077 33.0835 105.62 29.3196 108.459C25.5557 111.298 22.8135 115.28 21.5044 119.81L14.1708 145.477C14.051 145.895 14.0301 146.336 14.1097 146.764C14.1893 147.192 14.3671 147.596 14.6293 147.943C14.8915 148.291 15.2307 148.573 15.6204 148.767C16.0101 148.961 16.4396 149.063 16.875 149.062C21.5495 149.084 26.1047 147.587 29.8551 144.797C33.6054 142.007 36.3482 138.074 37.6706 133.59L40.2659 124.944C40.5864 123.896 41.2044 122.963 42.0448 122.26C42.8852 121.556 43.9119 121.112 45 120.981V139.219L34.875 146.813C34.4323 147.145 34.0973 147.6 33.9122 148.121C33.727 148.643 33.6998 149.208 33.834 149.745L39.459 172.245C39.6111 172.853 39.9623 173.393 40.4567 173.779C40.951 174.165 41.5603 174.375 42.1875 174.375H53.4375C54.1834 174.375 54.8988 174.079 55.4262 173.551C55.9537 173.024 56.25 172.308 56.25 171.562V169.453C56.2451 166.768 55.4362 164.146 53.9276 161.925L52.4749 156.115L54.5274 154.995L62.1021 172.67C62.3189 173.176 62.6795 173.607 63.1391 173.911C63.5986 174.214 64.137 174.375 64.6875 174.375H75.9375C76.6834 174.375 77.3988 174.079 77.9262 173.551C78.4537 173.024 78.75 172.308 78.75 171.562V169.643C78.7488 166.804 77.8069 164.045 76.0715 161.797L73.5279 152.891C77.0332 149.845 79.6923 145.946 81.2475 141.571L75.9488 139.682C74.5402 143.645 71.9924 147.104 68.625 149.625C68.1693 149.967 67.8281 150.439 67.6466 150.979C67.465 151.519 67.4517 152.101 67.6083 152.648C68.3645 155.297 69.0026 157.979 69.7999 160.616C70.5242 163.01 71.8429 164.886 72.6771 167.145C72.8687 167.663 73.0004 168.202 73.0695 168.75H66.542L59.5849 152.517L62.5845 149.518C66.5136 145.972 69.581 141.575 71.5528 136.663L72.2173 135H100.67C105.287 135.008 109.794 133.588 113.572 130.934L119.817 126.562H137.813V133.262L133.742 135.297C133.275 135.531 132.882 135.89 132.608 136.334C132.333 136.778 132.188 137.29 132.188 137.812V149.062C132.187 149.508 132.293 149.947 132.496 150.344C132.699 150.741 132.994 151.084 133.355 151.344C133.717 151.605 134.135 151.776 134.576 151.843C135.016 151.91 135.467 151.872 135.889 151.731L148.918 147.388C150.599 146.829 152.061 145.755 153.097 144.318C154.133 142.881 154.689 141.154 154.688 139.383V137.966L160.17 136.138C161.85 135.578 163.311 134.504 164.347 133.068C165.382 131.631 165.939 129.905 165.938 128.134V106.875C165.935 104.638 165.045 102.493 163.463 100.912C161.882 99.3299 159.737 98.4401 157.5 98.4375ZM111.335 22.5H106.715L108.824 16.875H113.574L114.703 19.132L111.335 22.5ZM120.938 23.3571V22.0395H120.941C121.062 22.238 121.126 22.4663 121.125 22.6988C121.125 22.9314 121.06 23.1592 120.938 23.3571ZM119.646 16.4415L117.828 12.8046C117.594 12.3375 117.235 11.9446 116.791 11.67C116.347 11.3955 115.835 11.25 115.313 11.25H120.938C123.174 11.2526 125.319 12.1424 126.901 13.7242C128.483 15.3059 129.372 17.4505 129.375 19.6875V22.4596C129.378 25.3411 129.844 28.2034 130.753 30.9375H129.593C129.128 30.9382 128.669 30.8228 128.259 30.6019C127.849 30.3809 127.5 30.0613 127.245 29.6719L125.367 26.8242C125.523 26.6031 125.676 26.3651 125.82 26.1113C126.489 24.998 126.819 23.7141 126.77 22.4163C126.721 21.1186 126.294 19.8633 125.543 18.804C124.069 16.6465 121.692 16.2232 119.646 16.4415ZM109.688 81.5625H118.125V87.1875H109.688V81.5625ZM123.75 81.5625H132.188V87.1875H123.75V81.5625ZM137.813 70.9713V68.7062L140.495 66.1539C140.162 68.0134 139.218 69.7086 137.813 70.9713ZM109.688 42.3612H114.648L119.68 44.8766C120.155 45.1155 120.688 45.2137 121.217 45.1596L148.34 42.4473L154.688 46.6791V49.2936L148.472 53.4375L121.489 48.0407L109.688 47.9862V42.3612ZM59.0625 47.8125H90C90.5552 47.8125 91.0979 47.6482 91.5599 47.3404C93.7401 46.0517 96.2182 45.353 98.7504 45.3129C99.1297 45.3129 99.5066 45.334 99.8807 45.3702L92.3906 53.4375H73.4034L59.6141 50.6795C59.4325 50.6433 59.2477 50.625 59.0625 50.625H56.25C55.5043 50.6242 54.7895 50.3276 54.2622 49.8003C53.7349 49.273 53.4383 48.5582 53.4375 47.8125C53.4375 47.0666 53.1412 46.3512 52.6137 45.8238C52.0863 45.2963 51.3709 45 50.625 45H52.7734L57.8046 47.5154C58.1951 47.7108 58.6258 47.8125 59.0625 47.8125ZM47.8125 33.75C47.8118 32.537 48.132 31.3454 48.7407 30.2961C49.3493 29.2468 50.2246 28.3772 51.2779 27.7755L52.1346 27.2862C51.1383 29.295 50.6215 31.5076 50.625 33.75V39.375H47.8125V33.75ZM51.2786 67.8516C50.2263 67.2482 49.3518 66.3779 48.7432 65.3286C48.1347 64.2793 47.8136 63.088 47.8125 61.875V50.625H48.2945C48.7698 51.956 49.571 53.1467 50.625 54.0882V61.875C50.6215 64.1174 51.1384 66.33 52.135 68.3388L51.2786 67.8516ZM63.7998 72.1881L59.5867 68.8222C58.543 67.9904 57.7009 66.9336 57.1231 65.7306C56.5453 64.5276 56.2468 63.2096 56.25 61.875V56.25H58.7841L72.5734 59.008C72.755 59.0442 72.9398 59.0625 73.125 59.0625H87.1664L68.8588 78.7785C67.7325 76.203 65.9962 73.9405 63.7998 72.1863V72.1881ZM104.063 49.1333V50.7987C104.063 51.5446 104.359 52.26 104.886 52.7874C105.414 53.3149 106.129 53.6112 106.875 53.6112H118.125V61.875H123.75V54.2296L141.664 57.8123C141.605 57.8725 133.875 64.6875 133.875 64.6875H123.75V70.3125H132.188V75.9375H123.75V73.125H118.125V75.9375H109.688V70.3125H118.125V64.6875H108.04L98.4888 55.1359L104.063 49.1333ZM101.35 65.9531L104.063 68.6647V70.9713C102.606 69.6618 101.648 67.8888 101.35 65.9531ZM149.063 139.383C149.063 139.974 148.877 140.549 148.532 141.028C148.187 141.507 147.699 141.865 147.139 142.051L137.813 145.16V139.551L141.883 137.515C142.35 137.282 142.743 136.923 143.017 136.479C143.292 136.034 143.438 135.522 143.438 135V123.75C143.438 123.004 143.141 122.289 142.614 121.761C142.086 121.234 141.371 120.938 140.625 120.938H118.125C115.888 120.935 113.743 120.045 112.162 118.463C110.58 116.882 109.69 114.737 109.688 112.5V106.875H104.063V112.5C104.065 115.143 104.811 117.733 106.216 119.972C107.621 122.211 109.629 124.009 112.008 125.161L110.344 126.326C107.511 128.316 104.132 129.381 100.67 129.375H73.125V118.125H67.5V131.646L66.33 134.574C63.8201 140.837 59.2087 146.031 53.287 149.265L47.873 152.218C47.3264 152.516 46.8941 152.987 46.6441 153.558C46.3941 154.128 46.3403 154.765 46.4913 155.369C47.1104 157.846 47.6427 160.366 48.3599 162.816C48.9646 164.88 50.3898 166.544 50.5934 168.75H44.3834L39.7427 150.192L49.5 142.875C49.8493 142.613 50.1328 142.273 50.3281 141.883C50.5233 141.492 50.625 141.062 50.625 140.625C50.625 140.625 50.6827 119.31 50.7973 118.523C51.3786 114.507 53.3868 110.836 56.4542 108.18C59.5216 105.525 63.4428 104.063 67.5 104.062H84.375C84.8117 104.063 85.2424 103.961 85.6329 103.765L107.539 92.8125H132.188V109.688H123.75V115.312H146.25C146.996 115.313 147.711 115.61 148.238 116.137C148.765 116.664 149.062 117.379 149.063 118.125V139.383Z" fill="#F0D770"/>
</svg>
