<svg width="181" height="180" viewBox="0 0 181 180" fill="none" xmlns="http://www.w3.org/2000/svg">
<path d="M154.062 124.083C154.325 123.856 154.574 123.613 154.808 123.357C159.592 118.095 159.666 106.831 152.593 100.193C144.832 92.9102 137.933 95.3662 133.37 96.9911C132.809 97.1908 132.273 97.3817 131.771 97.5427C126.62 97.1873 124.067 89.7212 124.044 89.6512C123.84 89.0327 123.428 88.5042 122.877 88.1558C122.327 87.8074 121.673 87.6608 121.027 87.7409C120.38 87.8211 119.782 88.1231 119.334 88.5953C118.885 89.0676 118.614 89.6809 118.568 90.3305L114.56 87.6586C114.098 87.3511 113.555 87.1872 113 87.1875H112.99C112.949 85.2983 112.743 83.4163 112.377 81.5625H117.846L131.24 89.5992C131.741 89.8995 132.322 90.0367 132.904 89.9917C133.486 89.9468 134.04 89.7218 134.488 89.3482L151.363 75.2857C151.68 75.0217 151.935 74.6913 152.11 74.3179C152.284 73.9446 152.375 73.5373 152.375 73.125V56.25C152.375 55.8806 152.302 55.5149 152.161 55.1737C152.02 54.8324 151.812 54.5224 151.551 54.2612L145.989 48.6984C145.565 48.2621 145.013 47.9713 144.414 47.8679C143.814 47.7644 143.197 47.8536 142.651 48.1226C141.992 48.461 141.493 49.046 141.263 49.7504C141.032 50.4548 141.089 51.2216 141.421 51.8843L143.937 56.9141V71.7732L132.458 80.9571L120.072 73.5258C119.635 73.2637 119.135 73.1251 118.625 73.125H109.515L107.015 67.5H115.812C118.582 67.5013 121.29 66.6842 123.597 65.1512C125.903 63.6183 127.705 61.4378 128.776 58.8839C136.133 57.3894 141.125 46.454 141.125 36.5625V25.3125C141.119 20.1061 139.054 15.1135 135.379 11.4249C131.705 7.73622 126.72 5.65117 121.514 5.62498C120.902 5.61726 120.304 5.8053 119.807 6.16165C119.31 6.51799 118.94 7.02397 118.75 7.60569C118.533 8.30829 118.599 9.06816 118.935 9.72244C119.271 10.3767 119.85 10.8733 120.548 11.1058C120.613 11.1273 127.062 13.3506 127.062 19.6875C127.062 20.7123 127.062 21.7371 127.065 22.6258C125.295 22.7754 123.55 23.1415 121.869 23.7157C117.249 20.5231 115.772 13.5784 115.758 13.5098C115.632 12.8836 115.298 12.3187 114.809 11.908C114.32 11.4972 113.705 11.2652 113.067 11.25H113C112.373 11.2501 111.764 11.4598 111.27 11.8458C110.775 12.2317 110.424 12.7718 110.272 13.3801C108.544 20.2904 111.228 26.1865 114.265 30.2987C113.394 32.2703 112.962 34.4076 113 36.5625C113.016 41.4417 114.15 46.2524 116.315 50.625H110.187C108.197 50.6204 106.229 51.0406 104.413 51.8575C102.598 52.6744 100.978 53.8693 99.6621 55.3623C97.7818 54.1084 95.5725 53.4387 93.3125 53.4375C92.3248 53.4362 91.3543 53.6966 90.5 54.1923C89.6456 53.6966 88.6752 53.4362 87.6875 53.4375C85.4274 53.4387 83.2182 54.1084 81.3379 55.3623C80.0215 53.8693 78.4017 52.6744 76.5866 51.8574C74.7715 51.0405 72.803 50.6203 70.8125 50.625H64.7094C66.8635 46.2495 67.989 41.4395 68 36.5625C68.0377 34.4076 67.6065 32.2703 66.7361 30.2987C69.7726 26.1854 72.4567 20.2904 70.7285 13.3801C70.5727 12.7615 70.2113 12.2142 69.7036 11.828C69.1959 11.4419 68.5719 11.2398 67.9342 11.255C67.2965 11.2701 66.6828 11.5017 66.194 11.9115C65.7052 12.3214 65.3702 12.8852 65.2441 13.5105C65.229 13.5851 63.718 20.5369 59.1311 23.7157C57.4507 23.1416 55.7062 22.7756 53.9368 22.6258C53.9375 21.7371 53.9375 20.7123 53.9375 19.6875C53.9375 13.4339 60.2002 11.193 60.4519 11.1058C61.1497 10.8733 61.7287 10.3767 62.0647 9.72244C62.4007 9.06816 62.467 8.30829 62.2495 7.60569C62.0603 7.02397 61.69 6.51799 61.1928 6.16165C60.6956 5.8053 60.0975 5.61726 59.4858 5.62498C54.2795 5.65117 49.295 7.73622 45.6207 11.4249C41.9465 15.1135 39.8809 20.1061 39.875 25.3125V36.5625C39.8869 41.6767 41.1339 46.7124 43.5098 51.2413C46.2428 56.2851 49.9462 59.0625 53.9375 59.0625C56.404 59.0625 58.6456 58.0078 60.582 56.25H70.8125C72.1145 56.247 73.3993 56.5468 74.5654 57.1259C75.7316 57.7049 76.747 58.5472 77.5316 59.5863C77.418 59.8029 76.4849 61.875 76.4849 61.875H65.1875C63.1319 61.8762 61.1468 61.126 59.6057 59.7656L55.883 63.9844C58.4521 66.2515 61.7611 67.5018 65.1875 67.5H73.9846L71.5082 73.0719L61.8265 73.1218C61.4379 73.1242 61.0574 73.2337 60.7269 73.4382L48.5424 80.9582L37.0625 71.7732V56.9141L39.5392 51.9606C39.819 51.4206 39.9205 50.8058 39.829 50.2045C39.7375 49.6032 39.4579 49.0464 39.0302 48.614C38.5004 48.0964 37.788 47.8085 37.0474 47.8126C36.3068 47.8168 35.5976 48.1127 35.0737 48.6362L29.4487 54.2612C29.1875 54.5224 28.9804 54.8324 28.839 55.1737C28.6977 55.5149 28.625 55.8806 28.625 56.25V73.125C28.625 73.5373 28.7156 73.9446 28.8904 74.3179C29.0653 74.6913 29.3201 75.0217 29.6368 75.2857L46.5118 89.3482C46.9602 89.7218 47.5137 89.9468 48.0956 89.9917C48.6775 90.0367 49.259 89.8995 49.7595 89.5992L63.154 81.5625H68.6226C68.2565 83.4163 68.0515 85.2983 68.0098 87.1875H68C67.4446 87.1876 66.9016 87.352 66.4394 87.66L51.2203 97.8061L41.5625 90.5625C41.0757 90.1974 40.4835 90 39.875 90H37.0625C36.6502 90 36.2429 90.0906 35.8695 90.2654C35.4961 90.4403 35.1658 90.6951 34.9018 91.0118L20.8393 107.887C20.451 108.353 20.2237 108.932 20.1914 109.537C20.1591 110.143 20.3235 110.743 20.66 111.248L26.285 119.685C26.4921 119.996 26.7591 120.262 27.0703 120.469C27.3815 120.676 27.7307 120.818 28.0976 120.888C28.4645 120.958 28.8416 120.955 29.2071 120.877C29.5725 120.8 29.9189 120.651 30.226 120.438C30.7304 120.078 31.1045 119.564 31.2924 118.973C31.4803 118.382 31.4719 117.747 31.2684 117.161L28.9646 110.25L38.4142 98.4375H38.9374L49.4375 106.312C49.903 106.662 50.4653 106.858 51.0469 106.874C51.6285 106.89 52.2008 106.725 52.6849 106.402L68.9141 95.625C69.6099 98.4968 70.5066 101.316 71.5975 104.062H68C67.6306 104.062 67.2649 104.135 66.9237 104.277C66.5824 104.418 66.2724 104.625 66.0112 104.886L58.3978 112.5H39.875C39.3246 112.5 38.7862 112.662 38.3267 112.965C37.8672 113.268 37.5067 113.699 37.2899 114.205L28.8524 133.892C28.6916 134.268 28.6145 134.674 28.6267 135.083C28.6388 135.491 28.7398 135.892 28.9228 136.258L34.5478 147.508C34.7233 147.859 34.9704 148.17 35.2732 148.42C35.576 148.67 35.9278 148.853 36.3059 148.959C36.684 149.065 37.0801 149.09 37.4687 149.034C37.8572 148.977 38.2296 148.84 38.5619 148.631C39.0684 148.302 39.4581 147.822 39.6757 147.259C39.8932 146.695 39.9274 146.078 39.7734 145.494L37.2316 135.327L44.4256 120.937H59.5625C59.9318 120.937 60.2976 120.865 60.6388 120.723C60.98 120.582 61.2901 120.375 61.5513 120.114L69.1647 112.5H74.4104L75.4362 115.578L66.6472 126.562H53.9375C53.5681 126.562 53.2024 126.635 52.8612 126.777C52.5199 126.918 52.2099 127.125 51.9487 127.386L46.3237 133.011C46.0625 133.272 45.8554 133.582 45.714 133.924C45.5727 134.265 45.5 134.631 45.5 135V154.687C45.5001 155.243 45.6645 155.786 45.9725 156.248L51.5975 164.686C51.8046 164.996 52.0716 165.263 52.3828 165.469C52.694 165.676 53.0432 165.818 53.4101 165.888C53.777 165.959 54.1541 165.955 54.5196 165.878C54.885 165.8 55.2314 165.651 55.5385 165.439C56.0429 165.078 56.417 164.564 56.6049 163.973C56.7928 163.383 56.7844 162.747 56.5809 162.161L53.9375 154.23V136.165L55.1026 135H70.8125C71.2342 135 71.6506 134.905 72.0307 134.723C72.4109 134.54 72.7451 134.275 73.0087 133.945L80.1454 125.027C81.5624 126.469 83.2647 127.599 85.1436 128.346L87.221 123.119C86.0152 122.642 84.9285 121.907 84.0373 120.965C83.1461 120.024 82.472 118.898 82.0625 117.668L75.1223 96.8484C74.2309 94.2265 73.7301 91.4877 73.6359 88.7199C73.514 84.6476 74.3124 80.6003 75.9717 76.8793L78.9037 70.2823L84.875 70.3125V64.6875H81.3903C81.3903 64.6875 82.9414 59.0625 87.6875 59.0625V75.9375H93.3125V59.0625C98.1465 59.0625 99.6097 64.6875 99.6097 64.6875H96.125V70.3125H102.131L105.028 76.8793C107.787 83.0874 108.126 90.1026 105.978 96.5475L98.9375 117.668C98.5283 118.896 97.8554 120.02 96.9659 120.961C96.0764 121.902 94.992 122.636 93.7885 123.114C93.3536 123.285 92.9682 123.562 92.6671 123.919C92.366 124.277 92.1588 124.703 92.0641 125.161C91.9694 125.619 91.9903 126.093 92.1248 126.541C92.2594 126.988 92.5034 127.395 92.8347 127.725C94.8643 129.745 96.125 133.61 96.125 137.812C96.125 140.684 95.5312 143.437 94.4515 145.582C94.2341 145.99 94.1146 146.443 94.1025 146.905C94.0969 147.497 94.2781 148.076 94.6202 148.56C94.9624 149.043 95.4482 149.407 96.0086 149.599C98.4855 150.517 100.726 151.977 102.567 153.871C103.936 155.227 105.093 156.782 105.998 158.483C106.157 158.803 106.372 159.092 106.634 159.335C107.087 159.747 107.661 160 108.27 160.056C108.879 160.112 109.489 159.968 110.009 159.647C112.212 158.283 115.353 157.502 118.625 157.502C121.756 157.502 124.798 158.227 126.982 159.493C127.303 159.689 127.659 159.821 128.031 159.881C128.629 159.97 129.24 159.865 129.774 159.58C130.308 159.296 130.737 158.848 130.997 158.301C131.928 156.397 133.174 154.664 134.683 153.176C136.726 151.133 139.106 149.601 141.398 148.854C141.871 148.713 142.304 148.458 142.657 148.112C143.05 147.71 143.314 147.198 143.414 146.644C143.515 146.09 143.447 145.519 143.219 145.004C141.34 140.36 141.354 135.165 143.259 130.532L138.13 128.221C136.821 131.248 136.162 134.516 136.197 137.814C136.188 140.092 136.492 142.36 137.101 144.555C136.563 144.821 136.029 145.118 135.501 145.434V135C135.501 134.631 135.428 134.265 135.287 133.924C135.146 133.582 134.938 133.272 134.677 133.011L129.052 127.386C128.791 127.125 128.481 126.918 128.139 126.776C127.798 126.635 127.432 126.562 127.062 126.562H114.352L105.563 115.578L106.59 112.5H112.062L122.562 120.375C123.049 120.74 123.641 120.937 124.25 120.937H134.023C137.832 124.458 142.584 126.516 146.951 126.516C147.065 126.516 147.179 126.516 147.293 126.512C147.345 126.512 147.395 126.506 147.447 126.504V126.562C150.102 126.562 153.072 131.374 153.072 137.812C153.072 141.403 151.982 145.666 149.882 147.811L146.705 146.336L144.337 151.438L147.35 152.837C146.947 155.456 145.218 158.55 142.64 161.129C139.095 164.672 135.124 166.18 132.61 165.902L132.139 162.078L126.556 162.766L127.043 166.723C124.877 168.006 121.848 168.75 118.625 168.75C115.697 168.75 112.868 168.117 110.74 167.019L111.013 163.057L105.401 162.67L105.135 166.537C102.288 167.22 97.6684 164.881 94.6119 161.826C91.356 158.57 89.9361 155.089 89.8215 152.68L92.4835 151.434L90.0985 146.34L87.7469 147.441C86.1958 145.592 84.875 142.226 84.875 137.812C84.8676 136.156 85.0728 134.505 85.4853 132.901L80.0445 131.474C79.5096 133.544 79.2426 135.674 79.25 137.812C79.25 143.619 81.1115 148.826 84.1951 151.887C84.0147 156.309 86.4124 161.581 90.6346 165.803C95.9805 171.147 102.74 173.407 107.524 171.67C110.555 173.402 114.499 174.375 118.625 174.375C123.146 174.375 127.364 173.237 130.477 171.213C135.219 172.481 141.571 170.151 146.614 165.107C150.38 161.341 152.739 156.667 153.035 152.537C156.515 149.619 158.695 144.062 158.695 137.812C158.696 132.089 156.886 127.119 154.062 124.083ZM53.9375 53.4375C50.2183 53.4375 45.5 45.4922 45.5 36.5625V25.3125C45.4966 22.0747 46.6159 18.936 48.6672 16.431C48.4277 17.4998 48.3087 18.5921 48.3125 19.6875C48.3125 20.7605 48.3125 21.832 48.31 22.7499V24.5869C48.31 25.6816 48.31 26.4726 49.1365 27.2999C49.3976 27.5612 49.7075 27.7686 50.0487 27.9102C50.3899 28.0518 50.7556 28.1248 51.125 28.125C62.375 28.125 62.375 34.4756 62.375 36.5625C62.375 45.4922 57.6567 53.4375 53.9375 53.4375ZM129.875 28.125C130.245 28.125 130.611 28.0521 130.952 27.9106C131.294 27.769 131.604 27.5615 131.865 27.2999C132.691 26.4726 132.691 25.6827 132.692 24.5869C132.692 24.5869 132.687 20.7605 132.687 19.6875C132.691 18.5921 132.572 17.4998 132.333 16.431C134.384 18.936 135.503 22.0747 135.5 25.3125V36.5625C135.5 45.4922 130.782 53.4375 127.062 53.4375C123.343 53.4375 118.625 45.4922 118.625 36.5625C118.625 34.4756 118.625 28.125 129.875 28.125ZM104.562 61.875V61.9805C104.562 61.9805 103.582 59.8008 103.468 59.5853C104.253 58.5464 105.269 57.7042 106.435 57.1254C107.601 56.5465 108.886 56.2468 110.187 56.25H120.43C121.177 56.9391 122.009 57.5291 122.906 58.0053C122.582 58.5102 122.205 58.9793 121.781 59.4046C120.999 60.1907 120.069 60.8138 119.044 61.2379C118.02 61.6619 116.921 61.8785 115.812 61.875H104.562ZM107.991 133.945C108.255 134.275 108.589 134.54 108.969 134.723C109.349 134.905 109.766 135 110.187 135H125.897L127.062 136.165V153.341C124.36 152.354 121.502 151.858 118.625 151.875C115.535 151.849 112.47 152.423 109.599 153.567C108.698 152.249 107.676 151.019 106.545 149.893C104.79 148.118 102.774 146.621 100.568 145.453C101.361 142.984 101.76 140.406 101.75 137.812C101.75 133.605 100.753 129.651 98.9969 126.626C99.6608 126.147 100.283 125.612 100.857 125.028L107.991 133.945ZM125.188 112.5L114.687 104.625C114.201 104.26 113.609 104.062 113 104.062H109.402L111.314 98.3267C111.611 97.4361 111.869 96.5355 112.086 95.625H112.149L118.559 99.8975V100.214C118.559 107.75 124.5 111.183 128.907 112.308C128.924 112.37 128.942 112.436 128.961 112.5L125.188 112.5ZM150.646 119.573C149.907 120.383 148.668 120.85 147.151 120.888C143.943 120.958 140.291 119.271 137.356 116.345C134.572 113.574 134.079 109.619 134.075 109.595C134.007 108.957 133.722 108.36 133.268 107.906C132.814 107.451 132.218 107.166 131.579 107.098C131.277 107.065 124.184 106.234 124.184 100.215V99.972C126.201 101.795 128.828 103.182 132.153 103.182C132.423 103.182 132.692 103.143 132.95 103.067C133.714 102.84 134.462 102.574 135.256 102.293C139.488 100.787 143.486 99.3638 148.744 104.297C152.095 107.441 154.422 115.418 150.646 119.573Z" fill="#F0D770"/>
<path d="M101.75 81.5625H79.25V87.1875H101.75V81.5625Z" fill="#F0D770"/>
<path d="M101.75 92.8125H79.25V98.4375H101.75V92.8125Z" fill="#F0D770"/>
<path d="M96.125 104.062H84.875V109.688H96.125V104.062Z" fill="#F0D770"/>
</svg>
