<svg width="180" height="180" viewBox="0 0 180 180" fill="none" xmlns="http://www.w3.org/2000/svg">
<path d="M158.414 73.3974C156.177 71.6591 153.768 70.1557 151.223 68.9111C147.44 64.5381 142.693 61.1026 137.357 58.8747C132.311 56.771 126.54 55.0634 122.592 51.1147L101.899 30.4217C98.1855 26.7088 93.7177 23.8372 88.7979 22.0012C83.8782 20.1652 78.6213 19.4077 73.3834 19.78C68.1454 20.1522 63.0486 21.6456 58.4379 24.1589C53.8272 26.6723 49.8104 30.1469 46.6594 34.3476L23.9063 64.6874H21.0938C20.7208 64.6874 20.3631 64.5393 20.0994 64.2756C19.8357 64.0118 19.6875 63.6541 19.6875 63.2812C19.6854 61.417 18.9439 59.6299 17.6257 58.3117C16.3076 56.9936 14.5204 56.2521 12.6563 56.2499H8.43751C7.88124 56.2499 7.33745 56.4149 6.87492 56.7239C6.41239 57.0329 6.05188 57.4722 5.839 57.9861C5.62612 58.5001 5.57043 59.0656 5.67896 59.6112C5.78749 60.1567 6.05537 60.6579 6.44872 61.0512C7.08122 61.6802 7.58267 62.4284 7.92404 63.2525C8.26542 64.0766 8.43995 64.9602 8.43751 65.8522V70.3124C8.44086 73.2951 9.6272 76.1546 11.7363 78.2637C13.8453 80.3727 16.7049 81.5591 19.6875 81.5624H22.5C22.5 87.9447 25.7235 94.502 27.7193 100.49L20.5123 107.697C20.0948 108.115 19.8192 108.653 19.7245 109.235C19.6299 109.818 19.721 110.416 19.9849 110.944L25.6099 122.194C25.8433 122.661 26.2022 123.054 26.6464 123.329C27.0907 123.604 27.6026 123.75 28.125 123.75H33.75V132.187C30.4113 132.146 27.1251 131.352 24.1358 129.864C16.7769 126.19 11.25 117.123 11.25 108.932C11.3069 104.563 12.7212 100.321 15.2968 96.7918L20.0672 90.4313L15.5672 87.0563L10.7951 93.4196C7.46844 97.9102 5.65765 103.343 5.62501 108.932C5.62501 119.338 12.3008 130.243 21.6211 134.894C25.4648 136.807 29.6989 137.806 33.9926 137.812H36.5625C37.3084 137.812 38.0238 137.516 38.5513 136.989C39.0787 136.461 39.375 135.746 39.375 135V120.937C39.375 120.192 39.0787 119.476 38.5513 118.949C38.0238 118.421 37.3084 118.125 36.5625 118.125H29.8631L25.9221 110.243L29.707 106.457L31.0817 110.577C31.2683 111.137 31.6265 111.624 32.1054 111.969C32.5843 112.314 33.1597 112.5 33.75 112.5H45C47.237 112.497 49.3816 111.608 50.9633 110.026C52.5451 108.444 53.4349 106.299 53.4375 104.062V102.592L59.0625 104.842V112.814C59.0625 126.243 73.5283 140.625 86.8739 140.625C91.302 140.629 95.6317 139.318 99.3136 136.858L102.81 134.527C103.128 134.315 103.4 134.04 103.608 133.72C103.817 133.399 103.958 133.039 104.022 132.662C104.087 132.285 104.074 131.899 103.984 131.527C103.894 131.155 103.729 130.806 103.5 130.5L95.0625 119.25C94.8207 118.928 94.5125 118.661 94.1587 118.468C93.8049 118.275 93.4138 118.161 93.0119 118.132C92.6099 118.103 92.2065 118.162 91.829 118.302C91.4515 118.443 91.1087 118.664 90.8237 118.949L87.1875 122.585L79.052 114.45L80.9459 106.875H116.425C121.179 115.499 128.719 122.255 137.813 126.035V130.894C132.58 135.379 127.002 139.461 121.975 144.186C119.985 146.021 118.218 148.083 116.712 150.331C116.385 150.82 114.346 154.687 113.807 154.687H101.517C102.178 151.253 104.046 148.167 106.783 145.989C106.828 145.952 106.871 145.915 106.914 145.877L122.826 131.459C123.152 131.164 123.403 130.798 123.561 130.388C123.72 129.978 123.78 129.537 123.737 129.1C123.694 128.663 123.549 128.242 123.314 127.871C123.079 127.5 122.761 127.189 122.384 126.963C116.69 123.557 112.51 118.108 110.694 111.726L105.286 113.273C107.14 119.794 111.039 125.546 116.408 129.685L103.199 141.653C100.829 143.557 98.9173 145.97 97.6061 148.713C96.295 151.456 95.6179 154.459 95.625 157.5C95.625 158.246 95.9213 158.961 96.4488 159.489C96.9762 160.016 97.6916 160.312 98.4375 160.312H115.313C115.775 160.312 116.231 160.198 116.64 159.98C117.048 159.761 117.396 159.445 117.653 159.06L123.062 150.945L142.455 134.323C142.763 134.059 143.011 133.731 143.18 133.363C143.35 132.994 143.437 132.593 143.438 132.187V127.937C147.057 128.893 150.785 129.377 154.529 129.375H154.688V133.835L142.612 145.91C139.539 148.985 137.813 153.153 137.813 157.5C137.813 158.246 138.109 158.961 138.636 159.489C139.164 160.016 139.879 160.312 140.625 160.312H157.5C157.963 160.312 158.419 160.198 158.827 159.98C159.235 159.761 159.583 159.445 159.84 159.06L165.311 150.855L173.551 142.615C173.813 142.353 174.02 142.043 174.161 141.702C174.302 141.36 174.375 140.994 174.375 140.625V106.035C174.395 99.735 172.966 93.5151 170.198 87.8558C167.431 82.1965 163.399 77.2496 158.414 73.3974ZM168.75 106.035V113.168L166.55 110.528C166.079 109.962 165.641 109.389 165.24 108.82C165.095 108.049 164.985 107.301 164.914 106.593L164.341 100.859C163.908 96.6 162.543 92.489 160.342 88.8176C160.211 88.6011 160.083 88.3936 159.955 88.1911C159.597 85.5808 158.962 83.0159 158.061 80.5397C161.46 83.8571 164.157 87.8231 165.993 92.2027C167.829 96.5822 168.766 101.286 168.75 106.035ZM19.6875 75.9374C18.1962 75.9357 16.7665 75.3425 15.712 74.288C14.6575 73.2335 14.0643 71.8037 14.0625 70.3124V65.8522C14.064 64.6015 13.8771 63.3578 13.5081 62.1629C13.6804 62.294 13.82 62.4632 13.9162 62.6571C14.0123 62.8511 14.0624 63.0647 14.0625 63.2812C14.0647 65.1453 14.8061 66.9325 16.1243 68.2507C17.4424 69.5688 19.2296 70.3103 21.0938 70.3124H22.5V75.9374H19.6875ZM168.75 139.46C165.819 142.391 162.509 145.201 160.078 148.563C158.644 150.547 157.353 152.65 155.995 154.687H143.811C143.932 154.242 144.081 153.805 144.257 153.379C144.797 152.073 145.589 150.886 146.59 149.888L159.489 136.989C159.75 136.728 159.957 136.417 160.098 136.076C160.24 135.735 160.313 135.369 160.313 135V126.562C160.313 125.817 160.016 125.101 159.489 124.574C158.961 124.046 158.246 123.75 157.5 123.75H154.529C145.297 123.698 136.391 120.327 129.438 114.253C125.817 111.058 122.845 107.197 120.681 102.881C117.769 95.8063 117.068 87.4005 117.062 87.3161L111.454 87.7605C111.887 92.3353 112.782 96.8547 114.123 101.25H85.7296C88.507 97.5027 90.0044 92.9609 90 88.2966V87.1874H84.375V88.2966C84.3778 90.9535 83.7232 93.5699 82.4695 95.9125C81.2158 98.255 79.402 100.251 77.1898 101.722C76.6077 102.111 76.1912 102.702 76.0215 103.38L73.209 114.63C73.0909 115.102 73.0968 115.595 73.2261 116.064C73.3555 116.532 73.604 116.959 73.9473 117.302L85.1973 128.552C85.4585 128.813 85.7685 129.021 86.1098 129.162C86.451 129.303 86.8167 129.376 87.1861 129.376C87.5555 129.376 87.9212 129.303 88.2624 129.162C88.6037 129.021 88.9137 128.813 89.1749 128.552L92.507 125.221L97.2144 131.497L96.1917 132.179C93.4337 134.022 90.1907 135.003 86.8739 135C76.5387 135 64.6875 123.084 64.6875 112.814V92.8124H59.0625V98.7834L53.4375 96.5334V93.9772L58.2388 89.1762C58.5 88.9151 58.7071 88.605 58.8485 88.2638C58.9898 87.9225 59.0625 87.5568 59.0625 87.1874V81.5624H61.875C64.8577 81.5591 67.7172 80.3727 69.8263 78.2637C71.9353 76.1546 73.1217 73.2951 73.125 70.3124V65.8522C73.1226 64.9602 73.2971 64.0766 73.6385 63.2525C73.9799 62.4284 74.4813 61.6802 75.1138 61.0512C75.5072 60.6579 75.775 60.1567 75.8836 59.6112C75.9921 59.0656 75.9364 58.5001 75.7235 57.9861C75.5106 57.4722 75.1501 57.0329 74.6876 56.7239C74.2251 56.4149 73.6813 56.2499 73.125 56.2499H68.9063C67.0421 56.2521 65.2549 56.9936 63.9368 58.3117C62.6186 59.6299 61.8772 61.417 61.875 63.2812C61.875 63.6541 61.7269 64.0118 61.4631 64.2756C61.1994 64.5393 60.8417 64.6874 60.4688 64.6874H53.4375C51.1997 64.6874 49.0536 65.5764 47.4713 67.1587C45.889 68.7411 45 70.8872 45 73.1249C45 75.3627 45.889 77.5088 47.4713 79.0912C49.0536 80.6735 51.1997 81.5624 53.4375 81.5624V86.0227L48.6362 90.8236C48.3751 91.0848 48.1679 91.3949 48.0266 91.7361C47.8852 92.0774 47.8125 92.4431 47.8125 92.8124V104.062C47.8117 104.808 47.5151 105.523 46.9878 106.05C46.4606 106.578 45.7457 106.874 45 106.875H35.7775L28.125 83.9179V68.4372L51.1597 37.7226C54.058 33.8775 57.8076 30.7561 62.1144 28.6029C66.4212 26.4498 71.1682 25.3235 75.9832 25.3124C84.2109 25.3152 92.1011 28.5835 97.9207 34.3996L118.614 55.0922C123.109 59.588 129.45 61.6724 135.194 64.0669C140.365 66.2217 144.871 69.709 148.254 74.1732C151.638 78.6374 153.776 83.9189 154.453 89.4793C154.456 89.5085 154.459 89.5376 154.463 89.5668C155.122 94.6694 154.842 99.4387 156.63 104.376C159.036 111.024 164.236 116.54 168.749 121.954V139.459L168.75 139.46ZM53.4375 75.9374C52.6916 75.9374 51.9762 75.6411 51.4488 75.1137C50.9213 74.5862 50.625 73.8709 50.625 73.1249C50.625 72.379 50.9213 71.6636 51.4488 71.1362C51.9762 70.6088 52.6916 70.3124 53.4375 70.3124H60.4688C62.3329 70.3103 64.1201 69.5688 65.4382 68.2507C66.7564 66.9325 67.4979 65.1453 67.5 63.2812C67.5001 63.0647 67.5502 62.8511 67.6463 62.6571C67.7425 62.4632 67.8822 62.294 68.0544 62.1629C67.6854 63.3578 67.4985 64.6015 67.5 65.8522V70.3124C67.4982 71.8037 66.905 73.2335 65.8505 74.288C64.796 75.3425 63.3663 75.9357 61.875 75.9374H53.4375Z" fill="#F0D770"/>
<path d="M126.563 87.1874H123.75C123.894 91.5292 124.953 95.7917 126.86 99.6953L131.89 97.1795C130.379 94.0528 129.523 90.6499 129.375 87.1801L126.563 87.1874Z" fill="#F0D770"/>
<path d="M74.9767 77.1792C74.9981 77.2238 77.1075 81.6837 74.9844 85.9296L80.0156 88.4453C83.4177 81.6409 80.1563 74.9608 80.0156 74.6796L74.9767 77.1792Z" fill="#F0D770"/>
<path d="M104.063 87.1874H98.4375V92.8124H104.063V87.1874Z" fill="#F0D770"/>
<path d="M105.623 56.7224L102.502 61.4024C102.573 61.4506 109.688 66.6108 109.688 81.5624H115.313C115.313 63.3909 106.018 56.9861 105.623 56.7224Z" fill="#F0D770"/>
<path d="M91.6875 56.8124L88.3125 61.3124C88.4137 61.3883 98.4375 69.051 98.4375 81.5624H104.063C104.063 66.2694 92.1927 57.1914 91.6875 56.8124Z" fill="#F0D770"/>
</svg>
