<svg width="180" height="180" viewBox="0 0 180 180" fill="none" xmlns="http://www.w3.org/2000/svg">
<path d="M160.497 19.3886C158.44 15.2432 155.264 11.7566 151.327 9.32404C147.391 6.89143 142.851 5.60998 138.224 5.62488H138.136C134.11 5.62579 130.145 6.60228 126.579 8.47075C123.014 10.3392 119.954 13.044 117.662 16.3535L114.514 20.8989L119.139 24.1009L122.286 19.5555C124.06 16.9936 126.429 14.8998 129.189 13.4533C131.95 12.0068 135.02 11.2508 138.136 11.2499H138.224C141.806 11.2384 145.32 12.2304 148.367 14.1134C151.414 15.9965 153.873 18.6954 155.466 21.9043C156.8 24.5828 157.496 27.5337 157.5 30.5261V117.991C155.592 117.806 153.708 117.432 151.875 116.873V98.4374H146.25V114.478C144.217 113.342 142.328 111.966 140.625 110.378V92.8124H135V104.927L132.112 97.7065L131.773 95.3268C131.767 95.2867 131.76 95.2466 131.753 95.2065L129.365 78.4788L128.127 54.2562C128.121 54.1488 128.109 54.0419 128.091 53.9359C127.551 50.6493 125.858 47.6624 123.316 45.5099C120.775 43.3573 117.55 42.1795 114.219 42.1874H112.5V22.2432C112.495 17.8374 110.743 13.6133 107.627 10.4979C104.512 7.38239 100.288 5.62991 95.882 5.62488C91.1039 5.62488 86.1008 5.70153 82.4548 9.33317C80.6368 11.1454 79.4166 13.4703 78.9581 15.996C76.652 12.7876 73.6158 10.1738 70.1001 8.37053C66.5844 6.56722 62.6902 5.6261 58.7391 5.62488H58.6512V11.2499H58.7391C61.8553 11.2507 64.9249 12.0067 67.6852 13.4532C70.4454 14.8996 72.814 16.9933 74.5882 19.5552L76.8502 22.823L76.2346 24.0534C75.9706 24.5815 75.8795 25.1792 75.9741 25.7619C76.0688 26.3446 76.3444 26.8828 76.7619 27.3001L78.75 29.2896V33.7499C78.75 34.4958 79.0463 35.2112 79.5738 35.7386C80.1012 36.2661 80.8166 36.5624 81.5625 36.5624H87.1875V42.1874H75.2273C73.0544 42.196 70.9126 42.7047 68.9678 43.674C67.0231 44.6434 65.3275 46.0474 64.0125 47.7772L63.1477 44.3175C62.9757 43.6259 62.5464 43.0259 61.9474 42.6398C63.4565 40.5711 64.3785 38.1331 64.6162 35.5835C64.8538 33.0339 64.3982 30.4675 63.2974 28.1555C63.0685 27.6735 62.7063 27.2671 62.2538 26.9843C61.8013 26.7015 61.2773 26.5542 60.7437 26.5597C61.1118 23.8791 60.7012 21.1491 59.561 18.6953C59.4042 18.3576 59.1819 18.0544 58.9069 17.8033C58.632 17.5521 58.31 17.3581 57.9595 17.2324C57.609 17.1067 57.237 17.0519 56.8652 17.0711C56.4933 17.0903 56.129 17.1831 55.7933 17.3442L54.9007 17.7724C55.0217 14.5041 54.0026 11.2953 52.0179 8.69578C51.7913 8.3993 51.508 8.15087 51.1844 7.96498C50.8608 7.77908 50.5035 7.65943 50.1332 7.613C49.763 7.56657 49.3872 7.59429 49.0277 7.69454C48.6683 7.79479 48.3324 7.96556 48.0396 8.19692L46.2959 9.57504C44.9675 10.625 43.8424 11.9091 42.9761 13.3638C41.9351 11.3223 40.4044 9.57056 38.5209 8.26522C36.6374 6.95988 34.4598 6.14163 32.1827 5.88363L29.995 5.64211C29.2567 5.5639 28.5174 5.77936 27.9368 6.24191C27.3561 6.70445 26.9809 7.37693 26.8921 8.11395L26.8871 8.15824C26.6574 10.295 26.9192 12.456 27.6526 14.4761C28.386 16.4962 29.5715 18.3219 31.1186 19.8136C30.266 20.0993 29.4431 20.467 28.6615 20.9115L26.7346 22.0077C26.0922 22.3731 25.6195 22.9766 25.4185 23.6878C25.2176 24.3989 25.3047 25.1606 25.6609 25.8081C27.0075 28.2781 29.0757 30.2785 31.5893 31.5421L30.3957 32.4238C29.8019 32.8625 29.4044 33.5171 29.2891 34.2464C29.1737 34.9756 29.3497 35.721 29.7791 36.3216C31.3073 38.4738 33.4215 40.1419 35.8703 41.1274L36.9784 43.0828L34.2088 44.8944C35.3181 46.5911 36.7873 48.0228 38.5121 49.0879C40.2369 50.1529 42.1751 50.8252 44.1889 51.057L50.5927 80.3273C50.9302 81.8773 51.633 83.3242 52.6426 84.5478C53.6521 85.7714 54.9392 86.7362 56.3968 87.3621C57.8544 87.9879 59.4404 88.2567 61.0228 88.146C62.6053 88.0353 64.1384 87.5484 65.4947 86.7258C65.8688 88.1046 66.2354 89.4996 66.5954 90.9016L63.8395 98.7735C63.3086 100.296 62.6515 101.771 61.875 103.183V92.8124H56.25V110.378C54.5466 111.966 52.658 113.342 50.625 114.478V98.4374H45V116.873C43.1669 117.432 41.2825 117.806 39.375 117.991V53.4374H33.75V120.937C33.75 121.683 34.0463 122.399 34.5738 122.926C35.1012 123.454 35.8166 123.75 36.5625 123.75C43.651 123.751 50.5678 121.569 56.3728 117.501C62.1779 113.433 66.5897 107.676 69.0086 101.013C69.4828 103.152 69.9402 105.292 70.367 107.426L75.883 106.324C74.8716 101.266 73.7198 96.1719 72.4634 91.1622L77.6166 76.4429C77.6957 76.2186 79.7934 71.5365 81.1512 69.6465C81.2535 69.72 82.6886 70.7852 82.6886 70.7852C81.8815 78.2145 81.5055 85.6842 81.5625 93.1569V158.574L73.7884 162.461C72.5215 163.095 71.5057 164.138 70.9054 165.421C70.3051 166.704 70.1556 168.152 70.4811 169.531C70.8066 170.909 71.5879 172.138 72.6986 173.017C73.8093 173.896 75.1843 174.375 76.6009 174.375H126.563C127.085 174.375 127.597 174.229 128.041 173.955C128.485 173.68 128.844 173.287 129.078 172.82C129.312 172.353 129.411 171.83 129.364 171.31C129.317 170.79 129.126 170.293 128.813 169.875C123.716 163.051 120.955 154.767 120.938 146.25V123.75H115.313V146.25C115.329 154.148 117.409 161.904 121.347 168.75H87.1875V93.1569C87.1255 85.3588 87.5501 77.5644 88.4587 69.8191C88.7987 66.9075 84.5648 65.677 83.0566 63.7723C82.0919 62.5522 81.5657 61.0431 81.5625 59.4878C81.5625 59.3946 81.5646 59.2993 81.5706 59.1819C81.6313 57.7941 82.1102 56.4571 82.9445 55.3464L87.8411 48.8157L95.625 54.0041V61.8749C95.625 62.6208 95.9213 63.3362 96.4488 63.8636C96.9762 64.3911 97.6916 64.6874 98.4375 64.6874C101.591 64.6896 104.652 63.6266 107.125 61.6706L109.041 62.9486L104.264 74.8929C104.04 75.4532 104.002 76.0707 104.155 76.6542C104.309 77.2377 104.647 77.7562 105.118 78.1332C112.073 83.6992 115.313 92.298 115.313 105.194V118.125H120.938V115.312H135.001C135.698 115.312 136.371 115.052 136.888 114.584C143.253 120.497 151.625 123.773 160.313 123.75C161.058 123.75 161.774 123.454 162.301 122.926C162.829 122.399 163.125 121.683 163.125 120.937V30.5261C163.12 26.6605 162.22 22.8485 160.497 19.3886ZM90 30.9374H84.375V28.1249C84.375 27.7555 84.3023 27.3898 84.1609 27.0486C84.0196 26.7073 83.8125 26.3973 83.5513 26.1361L82.1721 24.7569L84.0779 20.9453C84.4822 20.1367 84.375 19.1576 84.375 18.2811C84.3728 17.3583 84.5533 16.4441 84.9061 15.5913C85.2589 14.7386 85.777 13.9641 86.4306 13.3125C86.6842 13.0636 86.9559 12.8338 87.2434 12.6248L95.625 20.8665V42.1874H92.8125V33.7499C92.8125 33.004 92.5162 32.2886 91.9887 31.7611C91.4613 31.2337 90.7459 30.9374 90 30.9374ZM76.8867 64.2581C77.0337 64.6151 77.1969 64.9648 77.3764 65.3072C76.6052 66.2894 75.8913 67.3154 75.2382 68.3798L76.8867 64.2581ZM55.4101 41.2677C55.2622 39.7622 55.5189 38.2446 56.1538 36.8715C56.7886 35.4985 57.7786 34.3198 59.0214 33.4574C59.1693 34.9627 58.9127 36.4802 58.2781 37.8532C57.6435 39.2262 56.6539 40.405 55.4115 41.2677H55.4101ZM32.3789 25.3433C34.0462 24.6546 35.8973 24.5493 37.632 25.0445C38.8123 25.3764 39.9025 25.9704 40.8213 26.7823C39.1539 27.4709 37.3027 27.5762 35.5679 27.0811C34.3877 26.7491 33.2977 26.1551 32.3789 25.3433ZM41.6011 34.1324C42.8023 34.321 43.9456 34.7776 44.9462 35.4683C43.3661 36.3599 41.5301 36.6886 39.7389 36.4007C38.5376 36.2122 37.3943 35.7556 36.3937 35.0647C37.9744 34.1732 39.8107 33.8443 41.6025 34.132L41.6011 34.1324ZM51.5278 31.7175C51.3962 30.2104 51.6696 28.6956 52.3198 27.3296C52.9699 25.9636 53.9732 24.7962 55.2259 23.948C55.3574 25.4548 55.0841 26.9695 54.4342 28.3353C53.7843 29.7012 52.7814 30.8687 51.5292 31.7172L51.5278 31.7175ZM48.9203 14.7768C49.3645 16.223 49.4174 17.7613 49.0735 19.2346C48.7295 20.708 48.0011 22.0639 46.9624 23.164C46.5183 21.7175 46.4656 20.1792 46.8098 18.7057C47.154 17.2323 47.8827 15.8764 48.9217 14.7764L48.9203 14.7768ZM38.6782 17.8143C37.2135 17.4315 35.8804 16.6577 34.8215 15.5758C33.7625 14.4938 33.0177 13.1444 32.6665 11.6718C34.1317 12.0538 35.4653 12.8272 36.5246 13.9092C37.5838 14.9912 38.3288 16.341 38.6796 17.8139L38.6782 17.8143ZM45.6152 43.1999C46.596 43.4765 47.5163 43.9345 48.3282 44.5502L45.8051 45.0547C45.4483 45.1266 45.1089 45.267 44.8056 45.4682C43.1632 45.2727 41.6181 44.5855 40.3731 43.4966C42.0376 42.81 43.8852 42.7053 45.6166 43.1995L45.6152 43.1999ZM61.0488 82.4835C59.9489 82.6669 58.8206 82.4205 57.8972 81.7953C56.9739 81.1702 56.3261 80.214 56.0879 79.1246L49.8322 50.5328C50.6822 50.2679 51.5042 49.9204 52.2865 49.4953L58.3425 48.2842L59.9576 54.7438L56.3502 56.5473C56.0077 56.7186 55.7039 56.958 55.4572 57.2508C55.2105 57.5437 55.0262 57.8838 54.9157 58.2504C54.8051 58.617 54.7705 59.0022 54.814 59.3827C54.8576 59.7631 54.9784 60.1306 55.1689 60.4627L64.1046 76.032C64.4537 76.6402 64.6505 77.3239 64.6781 78.0248C64.7057 78.7256 64.5633 79.4226 64.2631 80.0565C63.9629 80.6903 63.5138 81.2421 62.954 81.6647C62.3943 82.0874 61.7406 82.3683 61.0488 82.4835ZM75.9375 168.086C75.9371 167.962 75.9713 167.841 76.0361 167.737C76.1009 167.632 76.1937 167.547 76.3042 167.492L81.5625 164.863V168.75H76.6016C76.4256 168.75 76.2568 168.68 76.1323 168.555C76.0078 168.431 75.9378 168.262 75.9375 168.086ZM78.4434 51.9728C77.6353 53.0481 77.0066 54.2472 76.5819 55.5236C76.5018 55.7637 76.4321 56.0066 76.3668 56.2506H75.9375C75.3754 56.2506 74.8262 56.419 74.3607 56.7341C73.8952 57.0493 73.5349 57.4967 73.3261 58.0186L67.957 71.4423L65.2852 66.7855C64.793 65.3441 64.2909 63.9122 63.7854 62.4989L67.353 53.2177C67.9714 51.6304 69.0531 50.266 70.4575 49.302C71.8619 48.338 73.5239 47.8189 75.2273 47.8124H81.5625L78.4434 51.9728ZM101.25 58.5804V19.6874C101.25 19.3143 101.175 18.945 101.031 18.601C100.887 18.2569 100.675 17.9451 100.409 17.6835L93.8672 11.2499H95.8809C98.7958 11.2525 101.591 12.4115 103.652 14.4726C105.713 16.5337 106.872 19.3284 106.875 22.2432V50.6249C106.873 52.3693 106.331 54.0704 105.324 55.4947C104.317 56.919 102.894 57.9969 101.25 58.5804ZM110.234 75.1126L111.378 72.2513L112.181 77.0701C111.566 76.3911 110.917 75.7386 110.234 75.1126ZM123.243 109.687L120.898 97.9624C119.295 86.736 117.75 75.4976 115.941 64.3017C115.689 62.7475 115.515 60.5368 114.088 59.5556C114.079 59.5489 114.07 59.5419 114.061 59.5356L110.785 57.3506C111.913 55.2886 112.503 52.9754 112.5 50.6249V47.8124H114.219C116.193 47.8073 118.105 48.496 119.623 49.7581C121.14 51.0203 122.165 52.7755 122.52 54.7171C122.52 54.7171 123.768 79.0631 123.78 79.1475C123.78 79.1475 126.682 99.2738 126.765 99.4819L130.846 109.687H123.243Z" fill="#F0D770"/>
<path d="M123.75 25.3124V28.1249C123.752 29.869 124.294 31.5698 125.301 32.9938C126.308 34.4178 127.731 35.4954 129.375 36.0786V36.5624C129.375 38.8001 130.264 40.9463 131.846 42.5286C133.429 44.1109 135.575 44.9999 137.812 44.9999C140.05 44.9999 142.196 44.1109 143.779 42.5286C145.361 40.9463 146.25 38.8001 146.25 36.5624V36.0786C147.894 35.4954 149.317 34.4178 150.324 32.9938C151.331 31.5698 151.873 29.869 151.875 28.1249V25.3124H146.25V28.1249C146.25 28.8708 145.954 29.5862 145.426 30.1136C144.899 30.6411 144.183 30.9374 143.438 30.9374C142.692 30.9374 141.976 30.6411 141.449 30.1136C140.921 29.5862 140.625 28.8708 140.625 28.1249V25.3124H135V28.1249C135 28.8708 134.704 29.5862 134.176 30.1136C133.649 30.6411 132.933 30.9374 132.188 30.9374C131.442 30.9374 130.726 30.6411 130.199 30.1136C129.671 29.5862 129.375 28.8708 129.375 28.1249V25.3124H123.75ZM137.812 34.4069C138.632 35.1422 139.587 35.7101 140.625 36.0786V36.5624C140.625 37.3083 140.329 38.0237 139.801 38.5511C139.274 39.0786 138.558 39.3749 137.812 39.3749C137.067 39.3749 136.351 39.0786 135.824 38.5511C135.296 38.0237 135 37.3083 135 36.5624V36.0786C136.038 35.7101 136.993 35.1422 137.812 34.4069Z" fill="#F0D770"/>
<path d="M149.062 81.5624C150.543 81.5595 151.996 81.1687 153.278 80.4288C154.561 79.689 155.626 78.6259 156.369 77.3457L151.501 74.529C151.192 75.0662 150.714 75.4864 150.142 75.7241C149.569 75.9619 148.935 76.004 148.336 75.8439C147.737 75.6838 147.208 75.3305 146.831 74.8388C146.454 74.3471 146.25 73.7446 146.25 73.1249V72.6411C147.894 72.0579 149.317 70.9803 150.324 69.5563C151.331 68.1323 151.873 66.4315 151.875 64.6874H146.25C146.25 65.4333 145.954 66.1487 145.426 66.6761C144.899 67.2036 144.183 67.4999 143.438 67.4999C142.692 67.4999 141.976 67.2036 141.449 66.6761C140.921 66.1487 140.625 65.4333 140.625 64.6874H135C135.002 66.4315 135.544 68.1323 136.551 69.5563C137.558 70.9803 138.981 72.0579 140.625 72.6411V73.1249C140.628 75.3618 141.517 77.5064 143.099 79.0882C144.681 80.67 146.826 81.5598 149.062 81.5624Z" fill="#F0D770"/>
<path d="M100.909 91.5703L95.8619 94.0544C99.2524 100.965 103.089 107.647 107.347 114.058L112.027 110.938C107.905 104.73 104.191 98.2605 100.909 91.5703Z" fill="#F0D770"/>
<path d="M98.1932 85.7867C96.3893 81.7462 95.4643 79.2192 95.4555 79.1942L90.1691 81.1173C90.2092 81.2266 91.163 83.8384 93.0568 88.0782L98.1932 85.7867Z" fill="#F0D770"/>
<path d="M100.828 122.587L95.7065 124.913C98.8418 131.873 102.792 138.437 107.473 144.466L111.905 141.002C107.497 135.323 103.779 129.142 100.828 122.587Z" fill="#F0D770"/>
<path d="M93.2889 119.13L98.5426 117.12C95.8215 110.006 94.8864 105.011 94.8758 104.962L92.1094 105.469L89.3426 105.973C89.383 106.195 90.366 111.489 93.2889 119.13Z" fill="#F0D770"/>
<path d="M108.864 161.136C99.6641 151.937 95.8911 139.92 95.8528 139.8L90.4739 141.447C90.6398 141.991 94.6635 154.891 104.886 165.114L108.864 161.136Z" fill="#F0D770"/>
</svg>
